<?xml version="1.0" encoding="utf-8"?>
<!-- Generator: Adobe Illustrator 15.1.0, SVG Export Plug-In . SVG Version: 6.00 Build 0)  -->
<!DOCTYPE svg PUBLIC "-//W3C//DTD SVG 1.1//EN" "http://www.w3.org/Graphics/SVG/1.1/DTD/svg11.dtd">
<svg version="1.1" id="Vrstva_1" xmlns="http://www.w3.org/2000/svg" xmlns:xlink="http://www.w3.org/1999/xlink" x="0px" y="0px"
	 width="23px" height="32.319px" viewBox="-3.063 4.857 23 32.319" enable-background="new -3.063 4.857 23 32.319"
	 xml:space="preserve">
<g>
	<g>
		<circle fill="#00A99D" cx="8.437" cy="16.358" r="11.5"/>
		<g id="layer2">
			<path id="path4075" fill="#FFFFFF" d="M10.414,19.861c0.333-0.174,0.584-0.49,0.677-0.866h0.298
				c0.182,1.644,1.572,2.918,3.263,2.918c1.812,0,3.288-1.471,3.288-3.285c0-1.815-1.475-3.29-3.288-3.29
				c-0.452,0-0.88,0.091-1.274,0.255l-1.092-1.998l0.413-0.961c0.772,0,2.242-0.145,2.175-1.025l-4.625,0.05
				c-0.132,0.09-0.512,0.357-0.297,0.552c0.508,0.268,1.307,0.335,1.814,0.423l-0.36,0.798H5.371l0.221-0.798
				c-0.028-0.328-0.294-0.482-0.576-0.63c-0.098-0.117,0.037-0.142,0.111-0.191l2.442-1.18l0.021-0.418L7.568,9.808l-2.98,1.222
				c-0.589,0.014-0.974,1.143,0.099,1.703c-0.319,0.996-0.538,1.904-0.821,2.887c-0.409-0.18-0.855-0.281-1.328-0.281
				c-1.813,0-3.286,1.474-3.286,3.29c0,1.813,1.472,3.285,3.286,3.285c1.817,0,3.286-1.471,3.286-3.285
				c0-1.038-0.479-1.964-1.229-2.563l0.118-0.409l3.79,2.583c-0.047,0.136-0.069,0.279-0.069,0.426c0,0.747,0.602,1.353,1.348,1.353
				c0.13,0,0.257-0.019,0.377-0.056 M5.127,14.404l5.675-0.022l-1.16,2.92c-0.006,0,0.146,0.021,0.14,0.017
				c-0.14-0.111-0.422-0.047-0.651,0.059 M11.972,14.46l0.799,1.474c-0.746,0.525-1.269,1.35-1.38,2.301H11.06
				c-0.08-0.241-0.231-0.453-0.42-0.61L11.972,14.46L11.972,14.46z M2.521,16.511c0.341,0,0.667,0.08,0.948,0.223
				c-0.109,0.335-0.229,0.688-0.371,1.061l-0.532,0.517c-0.447,0.32-0.4,0.786,0.311,0.645c0.439-0.27,0.857-0.595,1.133-1.384
				l0.103-0.348c0.336,0.376,0.539,0.871,0.539,1.415c0,1.179-0.952,2.13-2.13,2.13c-1.174,0-2.125-0.951-2.125-2.13
				C0.396,17.465,1.348,16.511,2.521,16.511L2.521,16.511z M14.624,16.501c1.159,0,2.096,0.941,2.096,2.095
				c0,1.157-0.937,2.096-2.096,2.096c-1.047,0-1.911-0.768-2.067-1.772l1.988-0.013c0.479-0.028,0.435-0.29,0.271-0.606
				l-0.924-1.668C14.122,16.55,14.369,16.501,14.624,16.501L14.624,16.501z M13.33,16.969l0.686,1.266l-1.513-0.036
				C12.603,17.596,12.87,17.325,13.33,16.969z M9.651,17.705l-0.128,0.328l-0.257-0.216C9.345,17.78,9.561,17.717,9.651,17.705
				L9.651,17.705z M10.482,17.992c0.069,0.073,0.126,0.153,0.171,0.242h-0.274L10.482,17.992z M8.833,18.468l0.421,0.287
				c0.151,0.108,0.304,0.215,0.439,0.243l0.295,0.617c-0.066,0.015-0.135,0.022-0.208,0.022c-0.534,0-0.971-0.436-0.971-0.973
				C8.811,18.598,8.82,18.532,8.833,18.468L8.833,18.468z M10.696,18.999c-0.137,0.418-0.443,0.646-0.707,0.617L9.694,19
				L10.696,18.999L10.696,18.999z"/>
		</g>
	</g>
	<polygon fill="#00A99D" points="1.433,24.632 8.676,37.176 15.919,24.632 	"/>
</g>
</svg>
