<?xml version="1.0" encoding="utf-8"?>
<!-- Generator: Adobe Illustrator 15.1.0, SVG Export Plug-In . SVG Version: 6.00 Build 0)  -->
<!DOCTYPE svg PUBLIC "-//W3C//DTD SVG 1.1//EN" "http://www.w3.org/Graphics/SVG/1.1/DTD/svg11.dtd">
<svg version="1.1" id="Vrstva_1" xmlns="http://www.w3.org/2000/svg" xmlns:xlink="http://www.w3.org/1999/xlink" x="0px" y="0px"
	 width="23px" height="32.317px" viewBox="-4.063 2.86 23 32.317" enable-background="new -4.063 2.86 23 32.317"
	 xml:space="preserve">
<g>
	<circle fill="#00A99D" cx="7.437" cy="14.361" r="11.5"/>
	<polygon fill="#00A99D" points="0.433,22.633 7.676,35.178 14.919,22.633 	"/>
	<path fill="#FFFFFF" d="M10.226,5.674c-0.867,0-1.571,0.703-1.571,1.569c0,0.864,0.705,1.567,1.571,1.567
		c0.862,0,1.565-0.704,1.565-1.567C11.793,6.377,11.089,5.674,10.226,5.674z M8.155,8.352C8.01,8.353,7.873,8.409,7.766,8.51
		l-2.943,2.788c-0.25,0.237-0.229,0.643,0.048,0.852l2.008,1.504v3.068c-0.012,0.753,1.126,0.753,1.115,0v-3.346
		c0-0.176-0.082-0.342-0.221-0.446l-1.111-0.874l2.027-1.917l1.085,1.343c0.108,0.142,0.273,0.224,0.45,0.223l2.815,0.002
		c0.754,0.011,0.754-1.126,0-1.117l-2.537-0.002L9.667,9.473L8.998,8.582c-0.102-0.141-0.257-0.224-0.43-0.229H8.155L8.155,8.352z
		 M2.419,12.818c-1.847,0-3.346,1.499-3.346,3.346c0,1.846,1.5,3.347,3.346,3.347c1.848,0,3.346-1.501,3.346-3.347
		C5.765,14.317,4.266,12.818,2.419,12.818z M12.454,12.818c-1.848,0-3.346,1.499-3.346,3.346c0,1.846,1.499,3.347,3.346,3.347
		c1.848,0,3.345-1.501,3.345-3.347C15.799,14.317,14.302,12.818,12.454,12.818z M2.419,13.933c1.231,0,2.229,0.997,2.229,2.231
		c0,1.23-0.998,2.229-2.229,2.229c-1.234,0-2.232-0.999-2.232-2.229C0.187,14.93,1.185,13.933,2.419,13.933z M12.454,13.933
		c1.233,0,2.232,0.997,2.232,2.231c0,1.23-0.999,2.229-2.232,2.229c-1.231,0-2.229-0.999-2.229-2.229
		C10.225,14.93,11.224,13.933,12.454,13.933z"/>
</g>
</svg>
