<?xml version="1.0" encoding="utf-8"?>
<!-- Generator: Adobe Illustrator 15.1.0, SVG Export Plug-In . SVG Version: 6.00 Build 0)  -->
<!DOCTYPE svg PUBLIC "-//W3C//DTD SVG 1.1//EN" "http://www.w3.org/Graphics/SVG/1.1/DTD/svg11.dtd">
<svg version="1.1" id="Vrstva_1" xmlns="http://www.w3.org/2000/svg" xmlns:xlink="http://www.w3.org/1999/xlink" x="0px" y="0px"
	 width="23px" height="32.386px" viewBox="4 -6.219 23 32.386" enable-background="new 4 -6.219 23 32.386" xml:space="preserve">
<g>
	<g>
		<path fill="#C1C600" d="M27,5.283c0,6.351-5.149,11.5-11.5,11.5S4,11.634,4,5.283C4-1.068,9.149-6.219,15.5-6.219
			S27-1.068,27,5.283z"/>
		<g>
			<path fill="#FFFFFF" d="M15.463,0.468v1.407h0.909v1.036h-1.068l-4.961,4.962H9.381c-0.729,0-1.395,0.409-1.723,1.06L7.11,10.018
				c-0.022,0.043-0.02,0.093,0.005,0.134c0.025,0.041,0.069,0.066,0.118,0.066h5.388l3.751-3.577v3.757h1.895V9.731h2.403v0.668
				h1.896V1.875h0.908V0.468l-4.005-2.891L15.463,0.468z M20.67,4.386h-2.403V1.875h2.403V4.386z"/>
		</g>
	</g>
	<polygon fill="#C1C600" points="8.498,13.622 15.739,26.167 22.981,13.622 	"/>
</g>
</svg>
