<?xml version="1.0" encoding="utf-8"?>
<!-- Generator: Adobe Illustrator 15.1.0, SVG Export Plug-In . SVG Version: 6.00 Build 0)  -->
<!DOCTYPE svg PUBLIC "-//W3C//DTD SVG 1.1//EN" "http://www.w3.org/Graphics/SVG/1.1/DTD/svg11.dtd">
<svg version="1.1" id="Vrstva_1" xmlns="http://www.w3.org/2000/svg" xmlns:xlink="http://www.w3.org/1999/xlink" x="0px" y="0px"
	 width="23px" height="32.317px" viewBox="4.937 -14.14 23 32.317" enable-background="new 4.937 -14.14 23 32.317"
	 xml:space="preserve">
<g>
	<g>
		<circle fill="#2E3192" cx="16.438" cy="-2.64" r="11.5"/>
		<g>
			<circle fill="#FFFFFF" cx="22.483" cy="-0.07" r="1.617"/>
			<g>
				<path fill="#FFFFFF" d="M25.704-2.305c0-1.831-4.613-2.966-4.613-2.966l-2.199-2.531c-2.823-0.878-6.375,0.147-6.375,0.147
					C9.218-6.885,8.854-4.65,8.854-4.65L8.814-2.855c-0.958,2.09,0.482,2.739,0.761,2.843c0-0.021-0.002-0.041-0.002-0.059
					c0-1.521,1.236-2.757,2.757-2.757c1.516,0,2.751,1.236,2.751,2.757c0,0.024-0.002,0.048-0.002,0.072h4.595
					c0-0.024-0.003-0.048-0.003-0.072c0-1.521,1.236-2.757,2.752-2.757c1.409,0,2.574,1.063,2.734,2.426
					C25.944-1.059,25.704-2.305,25.704-2.305z M14.312-5.018h-3.956l0.026-0.879c0,0,1.325-1.193,3.928-1.526v2.405H14.312z
					 M14.89-5.018v-2.461c1.037-0.075,2.248-0.011,3.639,0.301l1.756,2.16H14.89z"/>
			</g>
			<circle fill="#FFFFFF" cx="12.268" cy="-0.07" r="1.618"/>
		</g>
	</g>
	<polygon fill="#2E3192" points="9.433,5.632 16.677,18.178 23.919,5.632 	"/>
</g>
</svg>
