<?xml version="1.0" encoding="utf-8"?>
<!-- Generator: Adobe Illustrator 15.1.0, SVG Export Plug-In . SVG Version: 6.00 Build 0)  -->
<!DOCTYPE svg PUBLIC "-//W3C//DTD SVG 1.1//EN" "http://www.w3.org/Graphics/SVG/1.1/DTD/svg11.dtd">
<svg version="1.1" id="Vrstva_1" xmlns="http://www.w3.org/2000/svg" xmlns:xlink="http://www.w3.org/1999/xlink" x="0px" y="0px"
	 width="23px" height="32.317px" viewBox="8.586 -16.14 23 32.317" enable-background="new 8.586 -16.14 23 32.317"
	 xml:space="preserve">
<g>
	<g>
		<circle fill="#0071BC" cx="20.086" cy="-4.64" r="11.5"/>
		<g>
			<path fill="#FFFFFF" d="M15.653,2.049v-13.376h4.335c1.642,0,2.713,0.066,3.212,0.201c0.766,0.2,1.407,0.637,1.925,1.31
				c0.517,0.671,0.774,1.54,0.774,2.605c0,0.819-0.148,1.511-0.445,2.07c-0.3,0.561-0.678,1-1.138,1.318
				c-0.459,0.32-0.927,0.531-1.4,0.635c-0.646,0.129-1.578,0.192-2.802,0.192h-1.762v5.045H15.653z M18.354-9.064v3.796h1.48
				c1.063,0,1.774-0.07,2.134-0.211c0.359-0.139,0.64-0.357,0.845-0.656c0.202-0.298,0.307-0.644,0.307-1.04
				c0-0.487-0.145-0.888-0.431-1.204c-0.286-0.317-0.647-0.514-1.086-0.594c-0.321-0.061-0.971-0.091-1.942-0.091H18.354z"/>
		</g>
	</g>
	<polygon fill="#0071BC" points="12.404,3.632 19.646,16.178 26.89,3.632 	"/>
</g>
</svg>
