<?xml version="1.0" encoding="utf-8"?>
<!-- Generator: Adobe Illustrator 15.1.0, SVG Export Plug-In . SVG Version: 6.00 Build 0)  -->
<!DOCTYPE svg PUBLIC "-//W3C//DTD SVG 1.1//EN" "http://www.w3.org/Graphics/SVG/1.1/DTD/svg11.dtd">
<svg version="1.1" id="Vrstva_1" xmlns="http://www.w3.org/2000/svg" xmlns:xlink="http://www.w3.org/1999/xlink" x="0px" y="0px"
	 width="23px" height="32.317px" viewBox="6.937 -16.14 23 32.317" enable-background="new 6.937 -16.14 23 32.317"
	 xml:space="preserve">
<g>
	<g>
		<circle fill="#42210B" cx="18.438" cy="-4.64" r="11.5"/>
		<g>
			<path fill="#FFFFFF" d="M16.888-14.235c0.086,0.302,0.431,1.337,0.603,1.857c0.084,0.3-0.647-0.087-0.517,0.387
				c1.337,0.303,2.285,0.778,2.372,2.027c-1.64,0-3.279,0-4.919,0c0.131-1.165,0.991-1.811,2.375-2.027
				c0.172-0.43-0.435-0.129-0.435-0.387C16.498-12.811,16.802-13.89,16.888-14.235z"/>
			<path fill="#FFFFFF" d="M12.873-7.673c0.474,0.517,0.862,0.949,1.336,1.426c-0.735,0-1.771,0-2.633,0
				C11.965-6.681,12.438-7.241,12.873-7.673z"/>
			<path fill="#FFFFFF" d="M21.29-7.673c0.474,0.517,0.859,0.91,1.383,1.426c-0.735,0-1.769-0.043-2.766,0
				C20.343-6.681,20.904-7.286,21.29-7.673z"/>
			<path fill="#FFFFFF" d="M14.297-6.119c0,1.078,0,2.162,0,3.195c-0.95,0-1.858,0-2.808,0c0-1.033,0-2.118,0-3.195
				C12.438-6.119,13.347-6.119,14.297-6.119z"/>
			<path fill="#FFFFFF" d="M22.673-6.119c0,1.04,0,2.117,0,3.195c-0.952,0-1.858,0-2.766,0c0-0.91,0.043-2.072,0-3.195
				C20.814-6.119,21.721-6.119,22.673-6.119z"/>
			<path fill="#FFFFFF" d="M11.489-2.581c4.751,0,9.626,0,14.375,0c0,1.297,0,2.591,0,3.885c-4.793,0-9.583,0-14.375,0
				 M14.382,0.872c0.776,0,4.19,0,4.964,0c-0.126-1.036,0.129-2.46-2.458-2.976C14.427-1.587,14.597-0.419,14.382,0.872z"/>
			<path fill="#FFFFFF" d="M24.479-7.673c0.562,0.562,0.868,0.823,1.385,1.426c-0.778,0-1.771-0.043-2.718,0
				C23.577-6.726,24.053-7.241,24.479-7.673z"/>
			<path fill="#FFFFFF" d="M25.864-6.119c0,1.04,0,2.117,0,3.195c-0.907,0-1.812,0-2.718,0c-0.043-0.91,0-2.072,0-3.195
				C24.053-6.119,24.957-6.119,25.864-6.119z"/>
			<g>
				<g>
					<path fill="#FFFFFF" d="M14.427-9.789c-0.045,2.289,0,4.749,0,6.865c1.64,0,3.279,0,4.919,0c0-2.289,0-4.576,0-6.865
						C17.749-9.789,16.021-9.789,14.427-9.789z M16.757-8.752c1.078-0.087,0.949,1.511,0.949,1.856c-0.171,0-0.732,0-0.949,0
						c-0.216,0-0.735,0-0.906,0C15.806-7.286,15.765-8.839,16.757-8.752z M15.937-3.917c0,0-0.217-2.072,0.951-2.072
						c1.035,0,0.904,1.511,0.947,2.117C17.449-3.872,15.806-3.789,15.937-3.917z"/>
				</g>
			</g>
		</g>
	</g>
	<polygon fill="#42210B" points="11.434,3.632 18.677,16.178 25.919,3.632 	"/>
</g>
</svg>
