<?xml version="1.0" encoding="utf-8"?>
<!-- Generator: Adobe Illustrator 15.1.0, SVG Export Plug-In . SVG Version: 6.00 Build 0)  -->
<!DOCTYPE svg PUBLIC "-//W3C//DTD SVG 1.1//EN" "http://www.w3.org/Graphics/SVG/1.1/DTD/svg11.dtd">
<svg version="1.1" id="Vrstva_1" xmlns="http://www.w3.org/2000/svg" xmlns:xlink="http://www.w3.org/1999/xlink" x="0px" y="0px"
	 width="23px" height="32.317px" viewBox="18.938 -13.14 23 32.317" enable-background="new 18.938 -13.14 23 32.317"
	 xml:space="preserve">
<g>
	<circle fill="#42210B" cx="30.438" cy="-1.64" r="11.5"/>
	<g>
		<g>
			<path fill="#FFFFFF" d="M22.831-4.103h3.623l1.778,3.187l-1.023-0.502l-1.35,2.246c0,0-1.715,0.136-2.762-0.778
				c0,0-0.688-0.619-0.072-1.736l0.834-1.677L22.831-4.103z"/>
			<path fill="#FFFFFF" d="M22.917,0.257c0,0,0.382,0.976,2.955,0.908h3.716v3.748h-2.896c0,0-1.088,0.126-1.742-0.99L22.917,0.257z
				"/>
		</g>
		<g>
			<path fill="#FFFFFF" d="M32.49,6.071l-1.85-3.115l1.836-3.157l0.092,1.137l2.619,0.014c0,0,0.988,1.405,0.734,2.774
				c0,0-0.182,0.905-1.453,0.946l-1.871,0.137L32.49,6.071z"/>
			<path fill="#FFFFFF" d="M36.197,3.824c0,0,0.646-0.821-0.727-3l-1.896-3.198l3.227-1.91l1.477,2.489c0,0,0.666,0.875,0.037,2.005
				L36.197,3.824z"/>
		</g>
		<g>
			<path fill="#FFFFFF" d="M36.396-7.297l-1.758,3.166l-3.648,0.01l0.936-0.65l-1.313-2.271c0,0,0.719-1.561,2.025-2.033
				c0,0,0.875-0.3,1.553,0.775l1.063,1.546L36.396-7.297z"/>
			<path fill="#FFFFFF" d="M32.586-9.345c0,0-1.033-0.144-2.225,2.143l-1.801,3.246l-3.283-1.816l1.408-2.53
				c0,0,0.416-1.016,1.711-1.045L32.586-9.345z"/>
		</g>
	</g>
	<polygon fill="#42210B" points="23.434,6.632 30.678,19.177 37.919,6.632 	"/>
</g>
</svg>
