<?xml version="1.0" encoding="utf-8"?>
<!-- Generator: Adobe Illustrator 15.1.0, SVG Export Plug-In . SVG Version: 6.00 Build 0)  -->
<!DOCTYPE svg PUBLIC "-//W3C//DTD SVG 1.1//EN" "http://www.w3.org/Graphics/SVG/1.1/DTD/svg11.dtd">
<svg version="1.1" id="Vrstva_1" xmlns="http://www.w3.org/2000/svg" xmlns:xlink="http://www.w3.org/1999/xlink" x="0px" y="0px"
	 width="23px" height="32.317px" viewBox="18.938 -13.14 23 32.317" enable-background="new 18.938 -13.14 23 32.317"
	 xml:space="preserve">
<g>
	<g>
		<circle fill="#93278F" cx="30.438" cy="-1.64" r="11.5"/>
		<g>
			<g>
				<path fill="#FFFFFF" d="M22.831-4.103h3.623l1.778,3.187l-1.023-0.502l-1.35,2.246c0,0-1.712,0.136-2.76-0.778
					c0,0-0.688-0.62-0.074-1.737l0.835-1.676L22.831-4.103z"/>
				<path fill="#FFFFFF" d="M22.917,0.257c0,0,0.382,0.975,2.955,0.908h3.716v3.748h-2.896c0,0-1.088,0.126-1.743-0.99L22.917,0.257
					z"/>
			</g>
			<g>
				<path fill="#FFFFFF" d="M32.491,6.071L30.64,2.956l1.836-3.157l0.092,1.136l2.619,0.014c0,0,0.988,1.405,0.735,2.774
					c0,0-0.182,0.906-1.454,0.947l-1.87,0.136L32.491,6.071z"/>
				<path fill="#FFFFFF" d="M36.197,3.824c0,0,0.646-0.821-0.727-3l-1.896-3.198L36.8-4.284l1.477,2.489
					c0,0,0.666,0.875,0.037,2.005L36.197,3.824z"/>
			</g>
			<g>
				<path fill="#FFFFFF" d="M36.396-7.297l-1.758,3.166l-3.648,0.01l0.935-0.651l-1.311-2.271c0,0,0.716-1.561,2.022-2.033
					c0,0,0.876-0.3,1.555,0.775l1.061,1.546L36.396-7.297z"/>
				<path fill="#FFFFFF" d="M32.586-9.345c0,0-1.033-0.143-2.224,2.143l-1.802,3.246l-3.28-1.817l1.406-2.53
					c0,0,0.418-1.016,1.711-1.045L32.586-9.345z"/>
			</g>
		</g>
	</g>
	<polygon fill="#93278F" points="23.434,6.632 30.677,19.178 37.919,6.632 	"/>
</g>
</svg>
