<?xml version="1.0" encoding="utf-8"?>
<!-- Generator: Adobe Illustrator 15.1.0, SVG Export Plug-In . SVG Version: 6.00 Build 0)  -->
<!DOCTYPE svg PUBLIC "-//W3C//DTD SVG 1.1//EN" "http://www.w3.org/Graphics/SVG/1.1/DTD/svg11.dtd">
<svg version="1.1" id="Vrstva_1" xmlns="http://www.w3.org/2000/svg" xmlns:xlink="http://www.w3.org/1999/xlink" x="0px" y="0px"
	 width="23px" height="31.983px" viewBox="0 0.001 23 31.983" enable-background="new 0 0.001 23 31.983" xml:space="preserve">
<g>
	<circle fill="#42210B" cx="11.5" cy="11.501" r="11.5"/>
	<polygon fill="#42210B" points="4.498,19.439 11.739,31.984 18.981,19.439 	"/>
	<g>
		<path fill="#FFFFFF" d="M11.045,9.169c0-0.272,0.224-0.494,0.495-0.494l0,0c0.271,0,0.493,0.223,0.493,0.494v6.34
			c0,0.272-0.223,0.494-0.493,0.494l0,0c-0.272,0-0.495-0.222-0.495-0.494V9.169L11.045,9.169z"/>
		<path fill="#FFFFFF" d="M8.719,9.169c0-0.272,0.223-0.494,0.494-0.494l0,0c0.273,0,0.494,0.223,0.494,0.494v6.34
			c0,0.272-0.222,0.494-0.494,0.494l0,0c-0.272,0-0.494-0.222-0.494-0.494V9.169L8.719,9.169z"/>
		<path fill="#FFFFFF" d="M13.374,9.169c0-0.272,0.222-0.494,0.494-0.494l0,0c0.272,0,0.494,0.223,0.494,0.494v6.34
			c0,0.272-0.222,0.494-0.494,0.494l0,0c-0.274,0-0.494-0.222-0.494-0.494V9.169L13.374,9.169z"/>
		<path fill="#FFFFFF" d="M17.473,6.161h-1.944h-0.71V5.326c0-0.485-0.437-0.863-0.988-0.863H9.253
			c-0.555,0-0.987,0.378-0.987,0.863v0.833H7.554H5.527c-0.273,0-0.496,0.22-0.496,0.495c0,0.274,0.222,0.495,0.496,0.495h1.041
			v10.424c0,0.53,0.444,0.965,0.987,0.965h7.973c0.545,0,0.985-0.435,0.985-0.965V7.147h0.959c0.273,0,0.494-0.219,0.494-0.496
			C17.969,6.38,17.744,6.161,17.473,6.161L17.473,6.161z M9.253,5.183h4.575v0.977H9.253V5.453V5.183z M15.006,17.552
			c0,0-6.396,0.021-6.936,0.021c-0.542,0-0.515-0.558-0.515-0.558V7.625c0-0.571,0.485-0.476,0.485-0.476h1.217h4.571h1.115
			c0,0,0.583-0.034,0.583,0.476c0,0.509,0.009,8.959,0.009,9.438C15.535,17.538,15.006,17.552,15.006,17.552L15.006,17.552z"/>
	</g>
</g>
</svg>
