<?xml version="1.0" encoding="utf-8"?>
<!-- Generator: Adobe Illustrator 15.1.0, SVG Export Plug-In . SVG Version: 6.00 Build 0)  -->
<!DOCTYPE svg PUBLIC "-//W3C//DTD SVG 1.1//EN" "http://www.w3.org/Graphics/SVG/1.1/DTD/svg11.dtd">
<svg version="1.1" id="Vrstva_1" xmlns="http://www.w3.org/2000/svg" xmlns:xlink="http://www.w3.org/1999/xlink" x="0px" y="0px"
	 width="23px" height="31.949px" viewBox="9.426 -1.126 23 31.949" enable-background="new 9.426 -1.126 23 31.949"
	 xml:space="preserve">
<g>
	<g>
		<circle fill="#F36B1D" cx="20.926" cy="10.374" r="11.5"/>
		<g>
			<circle fill="#FFFFFF" cx="26.327" cy="13.129" r="1.568"/>
			<circle fill="#FFFFFF" cx="16.274" cy="13.129" r="1.568"/>
		</g>
		<path fill="#FFFFFF" d="M28.399,9.159l-1.534-0.261l-1.827-3.621H13.613l-0.379,1.097v6.902h0.936c0-1,0.944-2.105,2.104-2.105
			c1.162,0,2.107,1.104,2.107,2.105h5.842c0-1,0.943-2.105,2.106-2.105c1.162,0,2.105,1.104,2.105,2.105h0.801V9.864L28.399,9.159z
			 M15.372,7.566h1.121l0.552,0.984l-0.317-0.156l-0.419,0.695c0,0-0.528,0.042-0.854-0.241c0,0-0.214-0.192-0.021-0.539
			l0.258-0.517L15.372,7.566z M17.234,10.278h-0.666c0,0-0.335,0.078-0.539-0.269L15.41,8.911c-0.008-0.012-0.011-0.009-0.011-0.009
			l0.011,0.064c0.041,0.066,0.228,0.311,0.903,0.311h0.921V10.278L17.234,10.278z M17.705,6.772l-0.557,0.92l-1.016-0.605
			l0.436-0.806c0,0,0.129-0.325,0.529-0.333l1.273,0.166c0.017-0.001,0.023,0.165,0.023,0.165h-0.023
			C18.294,6.278,18.019,6.171,17.705,6.772z M18.41,6.02c0,0,0.271-0.093,0.481,0.24l0.327,0.479l0.354-0.168L19.026,7.55
			l-1.127,0.006l0.289-0.202L17.782,6.65C17.783,6.65,18.005,6.167,18.41,6.02z M19.427,9.986c0,0-0.057,0.282-0.449,0.293
			l-0.58,0.042l-0.032,0.392L17.79,9.748l0.57-0.979l0.027,0.353L19.2,9.126C19.2,9.127,19.507,9.562,19.427,9.986z M20.168,8.897
			l-0.645,1.101c-0.007,0.011-0.011,0.019-0.011,0.019l0.011-0.019c0.036-0.07,0.124-0.339-0.237-0.911l-0.588-0.99l1-0.592
			l0.458,0.771C20.156,8.276,20.363,8.547,20.168,8.897z M26.234,9.277h-4v-3h2.197l1.804,2.658L26.234,9.277L26.234,9.277z"/>
	</g>
	<polygon fill="#F36B1D" points="13.924,18.278 21.165,30.823 28.407,18.278 	"/>
</g>
</svg>
