<?xml version="1.0" encoding="utf-8"?>
<!-- Generator: Adobe Illustrator 15.1.0, SVG Export Plug-In . SVG Version: 6.00 Build 0)  -->
<!DOCTYPE svg PUBLIC "-//W3C//DTD SVG 1.1//EN" "http://www.w3.org/Graphics/SVG/1.1/DTD/svg11.dtd">
<svg version="1.1" id="Vrstva_1" xmlns="http://www.w3.org/2000/svg" xmlns:xlink="http://www.w3.org/1999/xlink" x="0px" y="0px"
	 width="23px" height="31.548px" viewBox="55.188 1.719 23 31.548" enable-background="new 55.188 1.719 23 31.548"
	 xml:space="preserve">
<g>
	<g>
		<circle fill="#0071BC" cx="66.688" cy="13.219" r="11.5"/>
		<g>
			<g>
				<path fill="#FFFFFF" d="M66.545,11.448V10.3l-0.013-3.229l0.004-0.916c0-0.217-0.179-0.396-0.396-0.396h-1.048
					c-0.221,0-0.398,0.179-0.398,0.396L64.69,7.071l0.014,3.229v1.148H66.545z"/>
				<path fill="#FFFFFF" d="M64.704,11.699c0,0.44,0.356,0.792,0.793,0.792h0.26c0.437,0,0.792-0.352,0.792-0.792H64.704z"/>
				<path fill="#FFFFFF" d="M66.545,11.448V10.3l-0.013-3.229l0.004-0.916c0-0.217-0.179-0.396-0.396-0.396h-1.048
					c-0.221,0-0.398,0.179-0.398,0.396L64.69,7.071l0.014,3.229v1.148H66.545z"/>
			</g>
			<g>
				<path fill="#FFFFFF" d="M68.731,11.448V10.3l-0.014-3.23l0.006-0.916c0-0.218-0.178-0.396-0.396-0.396h-1.05
					c-0.218,0-0.396,0.178-0.396,0.396L66.879,7.07l0.012,3.229v1.148L68.731,11.448L68.731,11.448z"/>
				<path fill="#FFFFFF" d="M66.891,11.699c0,0.44,0.354,0.792,0.793,0.792h0.256c0.438,0,0.796-0.352,0.796-0.792H66.891z"/>
				<path fill="#FFFFFF" d="M68.731,11.448V10.3l-0.014-3.23l0.006-0.916c0-0.218-0.178-0.396-0.396-0.396h-1.05
					c-0.218,0-0.396,0.178-0.396,0.396L66.879,7.07l0.012,3.229v1.148L68.731,11.448L68.731,11.448z"/>
				<path fill="#FFFFFF" d="M66.891,11.699c0,0.44,0.354,0.792,0.793,0.792h0.256c0.438,0,0.796-0.352,0.796-0.792H66.891z"/>
			</g>
			<g>
				<path fill="#FFFFFF" d="M70.916,11.448V10.3l-0.014-3.229l0.006-0.916c0-0.217-0.178-0.396-0.396-0.396h-1.049
					c-0.223,0-0.398,0.179-0.398,0.396l-0.001,0.916l0.011,3.229v1.148H70.916z"/>
				<path fill="#FFFFFF" d="M69.081,11.699c0,0.44,0.353,0.792,0.79,0.792h0.257c0.439,0,0.795-0.352,0.795-0.792H69.081z"/>
				<path fill="#FFFFFF" d="M70.916,11.448V10.3l-0.014-3.229l0.006-0.916c0-0.217-0.178-0.396-0.396-0.396h-1.049
					c-0.223,0-0.398,0.179-0.398,0.396l-0.001,0.916l0.011,3.229v1.148H70.916z"/>
			</g>
			<g>
				<path fill="#FFFFFF" d="M73.102,11.448V10.3l-0.009-3.229l0.004-0.916c0-0.217-0.175-0.396-0.396-0.396h-1.05
					c-0.223,0-0.398,0.179-0.398,0.396l-0.004,0.916l0.015,3.229v1.148H73.102z"/>
				<path fill="#FFFFFF" d="M71.268,11.699c0,0.44,0.352,0.792,0.786,0.792h0.259c0.438,0,0.794-0.352,0.794-0.792H71.268z"/>
				<path fill="#FFFFFF" d="M73.102,11.448V10.3l-0.009-3.229l0.004-0.916c0-0.217-0.175-0.396-0.396-0.396h-1.05
					c-0.223,0-0.398,0.179-0.398,0.396l-0.004,0.916l0.015,3.229v1.148H73.102z"/>
				<path fill="#FFFFFF" d="M71.268,11.699c0,0.44,0.352,0.792,0.786,0.792h0.259c0.438,0,0.794-0.352,0.794-0.792H71.268z"/>
			</g>
			<g>
				<path fill="#FFFFFF" d="M62.171,11.448V10.3l-0.015-3.229l0.009-0.916c0-0.217-0.18-0.396-0.398-0.396h-1.052
					c-0.217,0-0.396,0.179-0.396,0.396l-0.002,0.916l0.013,3.229v1.148H62.171z"/>
				<path fill="#FFFFFF" d="M60.331,11.699c0,0.44,0.355,0.792,0.79,0.792h0.26c0.437,0,0.794-0.352,0.794-0.792H60.331z"/>
				<path fill="#FFFFFF" d="M62.171,11.448V10.3l-0.015-3.229l0.009-0.916c0-0.217-0.18-0.396-0.398-0.396h-1.052
					c-0.217,0-0.396,0.179-0.396,0.396l-0.002,0.916l0.013,3.229v1.148H62.171z"/>
			</g>
			<g>
				<path fill="#FFFFFF" d="M64.356,11.448V10.3l-0.013-3.229l0.009-0.916c0-0.217-0.178-0.396-0.401-0.396h-1.047
					c-0.221,0-0.396,0.179-0.396,0.396l-0.004,0.916l0.014,3.229v1.148H64.356z"/>
				<path fill="#FFFFFF" d="M62.518,11.699c0,0.44,0.354,0.792,0.791,0.792h0.259c0.438,0,0.792-0.352,0.792-0.792H62.518z"/>
				<path fill="#FFFFFF" d="M64.356,11.448V10.3l-0.013-3.229l0.009-0.916c0-0.217-0.178-0.396-0.401-0.396h-1.047
					c-0.221,0-0.396,0.179-0.396,0.396l-0.004,0.916l0.014,3.229v1.148H64.356z"/>
				<path fill="#FFFFFF" d="M62.518,11.699c0,0.44,0.354,0.792,0.791,0.792h0.259c0.438,0,0.792-0.352,0.792-0.792H62.518z"/>
			</g>
			<path fill="#FFFFFF" d="M72.899,12.501c-0.078,0.057-0.162,0.095-0.252,0.125l-0.004,7.252c0,0.109,0.09,0.197,0.196,0.197h0.057
				c0.108,0,0.196-0.088,0.196-0.197l0.006-7.575C73.042,12.376,72.975,12.443,72.899,12.501z"/>
			<path fill="#FFFFFF" d="M67.407,12.659l-0.005,4.391c0,0.103-0.087,0.185-0.188,0.185h-6.222c-0.105,0-0.191-0.082-0.191-0.185
				l0.004-4.371c-0.045-0.023-0.264-0.176-0.307-0.209c-0.069-0.063-0.132-0.13-0.184-0.203l-0.003,7.611
				c0,0.108,0.089,0.196,0.197,0.196h7.21c0.108,0,0.198-0.088,0.198-0.196l0.002-7.191c-0.034,0-0.073,0.003-0.108,0.003
				C67.733,12.691,67.476,12.667,67.407,12.659z"/>
			<path fill="#FFFFFF" d="M69.409,16.013c0,0.13-0.102,0.232-0.234,0.232H68.5c-0.129,0-0.232-0.106-0.232-0.232l0,0
				c0-0.131,0.104-0.232,0.232-0.232h0.675C69.308,15.781,69.409,15.882,69.409,16.013L69.409,16.013z"/>
		</g>
	</g>
	<polygon fill="#0071BC" points="59.686,20.722 66.929,33.267 74.171,20.722 	"/>
</g>
</svg>
