<?xml version="1.0" encoding="utf-8"?>
<!-- Generator: Adobe Illustrator 15.1.0, SVG Export Plug-In . SVG Version: 6.00 Build 0)  -->
<!DOCTYPE svg PUBLIC "-//W3C//DTD SVG 1.1//EN" "http://www.w3.org/Graphics/SVG/1.1/DTD/svg11.dtd">
<svg version="1.1" id="Vrstva_1" xmlns="http://www.w3.org/2000/svg" xmlns:xlink="http://www.w3.org/1999/xlink" x="0px" y="0px"
	 width="23px" height="31.995px" viewBox="55 1.995 23 31.995" enable-background="new 55 1.995 23 31.995" xml:space="preserve">
<g>
	<g>
		<circle fill="#DC1011" cx="66.5" cy="13.495" r="11.5"/>
	</g>
	<polygon fill="#DC1011" points="59.498,21.446 66.739,33.99 73.981,21.446 	"/>
	<g>
		<path fill="#FFFFFF" d="M66.49,4.074c-5.191,0-9.4,4.208-9.4,9.4c0,5.19,4.209,9.399,9.4,9.399c5.193,0,9.402-4.209,9.402-9.399
			C75.893,8.282,71.684,4.074,66.49,4.074z M66.49,21.3c-4.321,0-7.824-3.504-7.824-7.825c0-4.322,3.505-7.825,7.824-7.825
			c4.322,0,7.826,3.504,7.826,7.825C74.316,17.797,70.813,21.3,66.49,21.3z"/>
		
			<rect x="65.753" y="5.022" transform="matrix(0.7074 0.7068 -0.7068 0.7074 28.9771 -43.0502)" fill="#FFFFFF" width="1.472" height="16.909"/>
		<g>
			<path fill="#FFFFFF" d="M67.495,10.86c-0.119-0.208-0.101-0.432-0.101-0.432l-0.104-2.229l0.085-0.15l-0.017-0.605h-0.051h-0.066
				h-0.64H66.38h-0.64h-0.067h-0.051L65.605,8.05l0.084,0.117l-0.103,2.244c0,0,0.033,0.403-0.271,0.633
				c-1.143,0.861-1.166,2.25-1.166,2.25l0.008,0.899L67.495,10.86z"/>
			<polygon fill="#FFFFFF" points="59.992,18.933 59.992,18.933 60.511,19.453 			"/>
			<path fill="#FFFFFF" d="M68.762,12.814l-4.585,4.584l0.011,1.559c0,0-0.023,0.29,0.413,0.421
				c0.321,0.097,1.112,0.066,1.632,0.066l0,0H66.23c0.015,0,0.028-0.004,0.043-0.004c0.135,0.006,0.219,0.004,0.219,0.004l0,0h0.013
				c0,0,0.098,0,0.246,0c0.009,0,0.06,0,0.06,0v0.096c0-0.02,1.28-0.019,1.602-0.112c0.439-0.131,0.396-0.496,0.396-0.496
				l0.027-5.644C68.834,13.288,68.826,13.103,68.762,12.814z"/>
		</g>
	</g>
</g>
</svg>
