<?xml version="1.0" encoding="utf-8"?>
<!-- Generator: Adobe Illustrator 15.1.0, SVG Export Plug-In . SVG Version: 6.00 Build 0)  -->
<!DOCTYPE svg PUBLIC "-//W3C//DTD SVG 1.1//EN" "http://www.w3.org/Graphics/SVG/1.1/DTD/svg11.dtd">
<svg version="1.1" id="Vrstva_1" xmlns="http://www.w3.org/2000/svg" xmlns:xlink="http://www.w3.org/1999/xlink" x="0px" y="0px"
	 width="23px" height="31.995px" viewBox="55 1.995 23 31.995" enable-background="new 55 1.995 23 31.995" xml:space="preserve">
<g>
	<g>
		<circle fill="#036B87" cx="66.5" cy="13.495" r="11.5"/>
	</g>
	<polygon fill="#036B87" points="59.498,21.446 66.739,33.99 73.981,21.446 	"/>
	<g>
		<g>
			<path fill="#FFFFFF" d="M70.287,18.955h-2.368c0,0,0.617-0.759,1.516-0.945l-1.04-3.314l2.493-2.148l-1.863-2.696l-1.209,3.626
				l-0.566,0.141l0.861-4.463l1.042-1.374l3.457-0.615l0.282,2.177l-0.378,0.334l-0.521-1.469l-1.325,0.332l2.552,2.701l1.99,7.197
				l-2.321,0.234c0,0,0.146-0.563,1.042-1.088l-1.799-4.112l-2.224,1.838L70.287,18.955z"/>
			<path fill="#FFFFFF" d="M62.682,19.295c0,0-1.309,0.055-1.751-0.136c0,0-0.572-1.334-0.197-1.716l2.34-2.033l0.842,0.554
				l9.57-7.051l0.447,0.423l-9.561,7.129l1.011,0.827L62.682,19.295z"/>
			<circle fill="#FFFFFF" cx="67.352" cy="6.517" r="1.8"/>
			<path display="none" fill="#FFFFFF" d="M55.348,18.955c0,0,0.463-1.01,1.141-1.08c0,0,0.284-1.067,1.104-1.05
				c0,0,0.677-1.052,1.959-1.016c1.282,0.034,1.531,0.534,1.778,0.748c0.249,0.213,0.857,0.295,1.034,0.824
				c0.178,0.529,1.137,0.517,1.388,1.573v0.131L55.348,18.955z"/>
		</g>
		<path fill="#FFFFFF" d="M62.775,7.578l-0.152-0.29L61.73,7.765V6.431H61.4v1.334l-0.894-0.479l-0.153,0.291l1.046,0.559v0.792
			l-1.156,0.667l-1.004-0.541l0.014-1.209L58.926,7.84l-0.012,1.037l-0.847-0.458L57.91,8.711l0.826,0.446l-0.831,0.54l0.181,0.274
			l0.979-0.636l1.062,0.572v1.339L59.2,11.851l-1.072-0.601l-0.159,0.285l0.923,0.519l-0.814,0.537l0.182,0.274l0.776-0.507
			l0.071,0.963l0.326-0.023l-0.085-1.144l1.028-0.677l1.025,0.591v1.174l-1.046,0.56l0.151,0.29l0.895-0.479v0.952h0.331v-0.952
			l0.892,0.479l0.153-0.29l-1.045-0.56v-1.174l1.154-0.668l1.004,0.542l-0.015,1.208l0.329,0.006l0.01-1.038l0.848,0.458
			l0.157-0.291l-0.827-0.447l0.831-0.54l-0.18-0.274l-0.979,0.637l-1.063-0.572v-1.34l0.928-0.606l1.071,0.604L65.16,9.46
			l-0.924-0.52l0.818-0.535L64.87,8.129l-0.773,0.509l-0.071-0.963l-0.327,0.023l0.086,1.144l-1.029,0.676L61.73,8.927V8.137
			L62.775,7.578z M61.564,9.221c-0.339,0-0.661,0.134-0.902,0.374c-0.239,0.239-0.374,0.563-0.374,0.901
			c0,0.338,0.135,0.662,0.374,0.902c0.241,0.24,0.563,0.374,0.902,0.374s0.662-0.134,0.902-0.374c0.239-0.239,0.374-0.563,0.374-0.9
			c0-0.338-0.135-0.664-0.374-0.902C62.227,9.355,61.903,9.221,61.564,9.221z"/>
	</g>
</g>
</svg>
