<?xml version="1.0" encoding="utf-8"?>
<!-- Generator: Adobe Illustrator 15.1.0, SVG Export Plug-In . SVG Version: 6.00 Build 0)  -->
<!DOCTYPE svg PUBLIC "-//W3C//DTD SVG 1.1//EN" "http://www.w3.org/Graphics/SVG/1.1/DTD/svg11.dtd">
<svg version="1.1" id="Vrstva_1" xmlns="http://www.w3.org/2000/svg" xmlns:xlink="http://www.w3.org/1999/xlink" x="0px" y="0px"
	 width="23px" height="32.159px" viewBox="3.937 -5.955 23 32.159" enable-background="new 3.937 -5.955 23 32.159"
	 xml:space="preserve">
<g>
	<g>
		<circle fill="#6D3303" cx="15.437" cy="5.545" r="11.5"/>
		<g>
			<path fill="#FFFFFF" d="M20.302,10.278h-0.254v-0.029c0-0.451-0.365-0.816-0.811-0.816h-7.261c-0.447,0-0.815,0.365-0.815,0.816
				v0.029h-0.247c-0.449,0-0.814,0.365-0.814,0.816v0.104c0,0.449,0.365,0.815,0.814,0.815h9.387c0.444,0,0.811-0.366,0.811-0.815
				v-0.104C21.112,10.642,20.746,10.278,20.302,10.278z"/>
			<path fill="#FFFFFF" d="M19.125,4.906c-1.342,0-2.525-0.792-3.053-2.021C16.057,2.86,16.044,2.829,16.031,2.8
				c-0.073-0.178-0.242-0.293-0.437-0.293s-0.368,0.121-0.437,0.303c-0.017,0.039-0.035,0.076-0.056,0.114
				c-0.532,1.207-1.711,1.983-3.038,1.983c-0.049,0-0.1-0.008-0.151-0.011v3.877c0.021-0.003,0.039-0.011,0.063-0.011h7.261
				c0.015,0,0.028,0.005,0.043,0.008V4.895C19.228,4.898,19.176,4.906,19.125,4.906z"/>
			<path fill="#FFFFFF" d="M12.064,2.342c-0.417,0-0.758-0.341-0.758-0.758c0-0.419,0.341-0.76,0.758-0.76
				c0.42,0,0.762,0.341,0.762,0.76C12.826,2.001,12.484,2.342,12.064,2.342L12.064,2.342z"/>
			<path fill="#FFFFFF" d="M19.125-0.924h-7.061c-1.382,0-2.505,1.121-2.505,2.508c0,1.385,1.123,2.507,2.505,2.507
				c1.056,0,1.956-0.651,2.326-1.572h0.008c0.186-0.481,0.648-0.824,1.196-0.824c0.537,0,0.994,0.329,1.192,0.794h0.004
				c0.363,0.938,1.267,1.602,2.334,1.602c1.383,0,2.508-1.122,2.508-2.507C21.633,0.197,20.508-0.924,19.125-0.924z M12.064,3.086
				c-0.827,0-1.501-0.675-1.501-1.501c0-0.829,0.674-1.501,1.501-1.501c0.831,0,1.505,0.672,1.505,1.501
				C13.569,2.41,12.896,3.086,12.064,3.086z M19.123,3.086c-0.831,0-1.501-0.675-1.501-1.501c0-0.829,0.67-1.501,1.501-1.501
				c0.827,0,1.505,0.672,1.505,1.501C20.628,2.41,19.95,3.086,19.123,3.086z"/>
			<path fill="#FFFFFF" d="M19.125,2.342c-0.42,0-0.76-0.341-0.76-0.758c0-0.419,0.34-0.76,0.76-0.76c0.419,0,0.76,0.341,0.76,0.76
				C19.885,2.001,19.544,2.342,19.125,2.342L19.125,2.342z"/>
		</g>
	</g>
	<polygon fill="#6D3303" points="8.434,13.659 15.676,26.204 22.919,13.659 	"/>
</g>
</svg>
