<?xml version="1.0" encoding="utf-8"?>
<!-- Generator: Adobe Illustrator 15.1.0, SVG Export Plug-In . SVG Version: 6.00 Build 0)  -->
<!DOCTYPE svg PUBLIC "-//W3C//DTD SVG 1.1//EN" "http://www.w3.org/Graphics/SVG/1.1/DTD/svg11.dtd">
<svg version="1.1" id="Vrstva_1" xmlns="http://www.w3.org/2000/svg" xmlns:xlink="http://www.w3.org/1999/xlink" x="0px" y="0px"
	 width="23px" height="31.995px" viewBox="45.167 -7.224 23 31.995" enable-background="new 45.167 -7.224 23 31.995"
	 xml:space="preserve">
<g>
	<g>
		<circle fill="#063F08" cx="56.667" cy="4.276" r="11.5"/>
	</g>
	<polygon fill="#063F08" points="49.664,12.225 56.907,24.77 64.149,12.225 	"/>
	<g id="svgg_5_">
		<path id="path0_5_" fill="#FFFFFF" d="M60.505-3.148c-0.082,0.076-0.225,0.447-0.968,2.502l-0.872,2.413L58.524,1.79
			c-0.355,0.06-6.65,0.318-6.919,0.284c-0.979-0.125-1.881-0.679-2.397-1.473c-0.261-0.399-0.269-0.408-0.388-0.459
			c-0.404-0.169-0.59,0.241-0.313,0.698c0.506,0.833,1.313,1.475,2.223,1.764l0.281,0.089l-0.109,0.152
			c-0.588,0.826-0.641,2.087-0.135,3.231c0.062,0.141,0.101,0.271,0.086,0.289c-0.121,0.156-0.863,1.182-0.912,1.26
			c-0.086,0.142-0.084,0.151,0.146,1.404c0.277,1.498,0.223,1.4,0.775,1.4c0.595,0,0.621-0.063,0.439-1.039
			c-0.07-0.382-0.127-0.723-0.125-0.758c0-0.047,0.396-0.363,1.444-1.15c1.428-1.072,1.594-1.215,1.814-1.546
			c0.09-0.134,0.129-0.166,0.184-0.153c0.094,0.021,2.91,0.504,3.835,0.657c0.415,0.069,0.767,0.139,0.78,0.155
			s0.146,0.801,0.291,1.745c0.305,1.953,0.3,1.933,0.414,2.022c0.115,0.092,0.668,0.098,0.775,0.01
			c0.143-0.115,0.143-0.119,0.143-2.048V6.475l0.098-0.082c0.264-0.222,0.309-0.37,0.76-2.456c0.207-0.962,0.385-1.773,0.393-1.803
			c0.015-0.046,0.07-0.054,0.396-0.054c1.007-0.001,1.843-0.491,2.334-1.369c0.246-0.436,0.173-0.519-0.819-0.92l-0.742-0.3
			L63.22-0.675c-0.111-0.327-0.425-0.663-0.699-0.751c-0.172-0.056-0.164-0.034-0.207-0.533c-0.045-0.546-0.08-0.648-0.242-0.716
			c-0.199-0.084-0.305-0.041-0.541,0.215c-0.258,0.277-0.219,0.297-0.348-0.171C61.021-3.219,60.782-3.402,60.505-3.148"/>
	</g>
</g>
</svg>
