<?xml version="1.0" encoding="utf-8"?>
<!-- Generator: Adobe Illustrator 15.1.0, SVG Export Plug-In . SVG Version: 6.00 Build 0)  -->
<!DOCTYPE svg PUBLIC "-//W3C//DTD SVG 1.1//EN" "http://www.w3.org/Graphics/SVG/1.1/DTD/svg11.dtd">
<svg version="1.1" id="Vrstva_1" xmlns="http://www.w3.org/2000/svg" xmlns:xlink="http://www.w3.org/1999/xlink" x="0px" y="0px"
	 width="23px" height="32.316px" viewBox="6.937 1.878 23 32.316" enable-background="new 6.937 1.878 23 32.316"
	 xml:space="preserve">
<g>
	<g>
		<circle fill="#0000FF" cx="18.438" cy="13.379" r="11.5"/>
		<g>
			<path fill="#FFFFFF" d="M21.223,5.289c-0.382-0.126-0.794,0.084-0.921,0.465l-0.745,2.305c0.49,0.081,0.955,0.226,1.396,0.426
				l0.737-2.279C21.816,5.825,21.608,5.409,21.223,5.289z M15.892,5.289c-0.382,0.121-0.597,0.537-0.47,0.918l0.749,2.314
				c0.439-0.202,0.906-0.357,1.395-0.45l-0.753-2.317C16.688,5.373,16.273,5.163,15.892,5.289z M25.537,8.419
				c-0.236-0.328-0.694-0.398-1.022-0.161l-1.89,1.374c0.346,0.344,0.642,0.735,0.891,1.159l1.854-1.348
				C25.7,9.203,25.774,8.745,25.537,8.419z M11.577,8.419c-0.237,0.326-0.162,0.784,0.167,1.024l1.919,1.393
				c0.245-0.424,0.539-0.817,0.883-1.164L12.6,8.257C12.273,8.021,11.815,8.093,11.577,8.419z M26.452,12.763h-2.224
				c0.049,0.296,0.081,0.606,0.081,0.917v0.54h2.143c0.4,0,0.729-0.326,0.729-0.729S26.853,12.763,26.452,12.763z M9.932,13.489
				c0,0.405,0.329,0.729,0.733,0.729h2.232v-0.54c0-0.311,0.032-0.621,0.081-0.917h-2.313C10.261,12.763,9.932,13.085,9.932,13.489z
				"/>
			<path fill="#FFFFFF" d="M23.254,18.367h-0.24c0.107-0.1,0.169-0.24,0.169-0.393c0-0.296-0.238-0.539-0.537-0.539h-8.169
				c-0.305,0-0.545,0.241-0.545,0.539c0,0.153,0.066,0.293,0.168,0.393h-0.238c-0.449,0-0.814,0.365-0.814,0.813
				s0.366,0.814,0.814,0.814h9.393c0.447,0,0.813-0.366,0.813-0.814S23.701,18.367,23.254,18.367z"/>
			<path fill="#FFFFFF" d="M18.595,9.032c-2.203,0-3.988,1.787-3.988,3.99v3.448h4.761v-3.448c0-1.725-0.12-3.125-0.924-3.125
				c1.722,0,3.124,1.401,3.124,3.125v3.448h1.018v-3.448C22.585,10.82,20.798,9.032,18.595,9.032z"/>
		</g>
	</g>
	<polygon fill="#0000FF" points="11.434,21.649 18.677,34.194 25.919,21.649 	"/>
</g>
</svg>
