<?xml version="1.0" encoding="utf-8"?>
<!-- Generator: Adobe Illustrator 15.1.0, SVG Export Plug-In . SVG Version: 6.00 Build 0)  -->
<!DOCTYPE svg PUBLIC "-//W3C//DTD SVG 1.1//EN" "http://www.w3.org/Graphics/SVG/1.1/DTD/svg11.dtd">
<svg version="1.1" id="Vrstva_1" xmlns="http://www.w3.org/2000/svg" xmlns:xlink="http://www.w3.org/1999/xlink" x="0px" y="0px"
	 width="23px" height="32.159px" viewBox="3.937 -5.955 23 32.159" enable-background="new 3.937 -5.955 23 32.159"
	 xml:space="preserve">
<g>
	<g>
		<circle fill="#F7931E" cx="15.437" cy="5.545" r="11.5"/>
		<g>
			<path fill-rule="evenodd" clip-rule="evenodd" fill="#FFFFFF" d="M7.006,1.789c-0.184,0-0.333,0.147-0.333,0.33
				c0.167,4.726,3.909,8.546,8.62,8.857c0.204,0.014,0.41,0.007,0.622,0.007c0.668,0,1.366-0.118,1.993-0.254
				c2.034-0.446,3.539-2.242,3.539-4.419c0-0.146-0.011-0.294-0.021-0.442c-0.029-0.271-0.08-0.535-0.151-0.789
				c-0.539-1.896-2.291-3.289-4.372-3.289c-2.076,0-3.828,1.393-4.367,3.289c0.371,1.31,1.319,2.376,2.557,2.913
				c-0.413-0.439-0.666-1.031-0.666-1.682c0-1.359,1.11-2.465,2.477-2.465c1.37,0,2.478,1.106,2.478,2.465
				c0,0.651-0.254,1.243-0.662,1.682c-0.455,0.484-1.097,0.787-1.815,0.787c-2.011,0-3.742-1.194-4.519-2.911
				c-0.114-0.253-0.208-0.518-0.275-0.79c-0.106-0.393-0.159-0.808-0.159-1.233c0-0.592,0.104-1.161,0.3-1.687
				c0.006-0.026,0.017-0.048,0.026-0.072c0.005-0.015,0.005-0.032,0.005-0.049c0-0.136-0.113-0.247-0.248-0.247H7.006"/>
			<path fill-rule="evenodd" clip-rule="evenodd" fill="#FFFFFF" d="M23.687,2.037c0.153,0.575,0.237,1.182,0.237,1.807
				c0,2.115-0.943,4.008-2.43,5.29c-0.372,0.282-0.69,0.557-1.312,0.889c1.128-1.06,1.679-2.302,1.679-3.713
				c0-0.425-0.057-0.836-0.159-1.232c0.103-0.393,0.159-0.808,0.159-1.233c0-0.608-0.112-1.19-0.314-1.726
				c-0.01-0.026-0.012-0.056-0.012-0.083c0-0.136,0.109-0.247,0.246-0.247h1.587C23.52,1.789,23.65,1.9,23.687,2.037"/>
		</g>
	</g>
	<polygon fill="#F7931E" points="8.434,13.659 15.677,26.204 22.919,13.659 	"/>
</g>
</svg>
