<?xml version="1.0" encoding="utf-8"?>
<!-- Generator: Adobe Illustrator 15.1.0, SVG Export Plug-In . SVG Version: 6.00 Build 0)  -->
<!DOCTYPE svg PUBLIC "-//W3C//DTD SVG 1.1//EN" "http://www.w3.org/Graphics/SVG/1.1/DTD/svg11.dtd">
<svg version="1.1" id="Vrstva_1" xmlns="http://www.w3.org/2000/svg" xmlns:xlink="http://www.w3.org/1999/xlink" x="0px" y="0px"
	 width="23px" height="32.681px" viewBox="22 -4.181 23 32.681" enable-background="new 22 -4.181 23 32.681" xml:space="preserve">
<g>
	<g>
		<circle fill="#DB7F23" cx="33.5" cy="7.319" r="11.5"/>
		<g>
			<g>
				<path fill="#FFFFFF" d="M28.021,3.052h2.584l1.271,2.274l-0.729-0.359l-0.965,1.604c0,0-1.221,0.097-1.969-0.555
					c0,0-0.492-0.442-0.054-1.24l0.597-1.196L28.021,3.052z"/>
				<path fill="#FFFFFF" d="M28.082,6.164c0,0,0.271,0.695,2.109,0.648h2.649v2.675h-2.063c0,0-0.777,0.09-1.246-0.706L28.082,6.164
					z"/>
			</g>
			<g>
				<path fill="#FFFFFF" d="M34.915,10.313L33.594,8.09l1.311-2.252l0.064,0.812l1.869,0.009c0,0,0.706,1.002,0.525,1.981
					c0,0-0.131,0.646-1.037,0.676L34.99,9.412L34.915,10.313z"/>
				<path fill="#FFFFFF" d="M37.561,8.71c0,0,0.461-0.586-0.52-2.141l-1.354-2.282l2.303-1.364l1.054,1.776
					c0,0,0.476,0.625,0.024,1.431L37.561,8.71z"/>
			</g>
			<g>
				<path fill="#FFFFFF" d="M37.701,0.774l-1.256,2.259L33.842,3.04l0.668-0.464l-0.938-1.621c0,0,0.512-1.114,1.443-1.451
					c0,0,0.625-0.214,1.11,0.555l0.755,1.104L37.701,0.774z"/>
				<path fill="#FFFFFF" d="M34.982-0.688c0,0-0.738-0.103-1.588,1.528l-1.285,2.316l-2.34-1.296l1.002-1.806
					c0,0,0.301-0.725,1.223-0.746L34.982-0.688z"/>
			</g>
		</g>
		<path fill="#FFFFFF" d="M41.145,12.455c0,0.276-0.224,0.5-0.5,0.5h-13c-0.275,0-0.5-0.224-0.5-0.5l0,0c0-0.276,0.225-0.5,0.5-0.5
			h13C40.921,11.955,41.145,12.178,41.145,12.455L41.145,12.455z"/>
	</g>
	<polygon fill="#DB7F23" points="26.497,15.955 33.74,28.5 40.982,15.955 	"/>
</g>
</svg>
