<?xml version="1.0" encoding="utf-8"?>
<!-- Generator: Adobe Illustrator 15.1.0, SVG Export Plug-In . SVG Version: 6.00 Build 0)  -->
<!DOCTYPE svg PUBLIC "-//W3C//DTD SVG 1.1//EN" "http://www.w3.org/Graphics/SVG/1.1/DTD/svg11.dtd">
<svg version="1.1" id="Vrstva_1" xmlns="http://www.w3.org/2000/svg" xmlns:xlink="http://www.w3.org/1999/xlink" x="0px" y="0px"
	 width="23px" height="32.16px" viewBox="21.937 -3.956 23 32.16" enable-background="new 21.937 -3.956 23 32.16"
	 xml:space="preserve">
<g>
	<g>
		<circle fill="#00A99D" cx="33.437" cy="7.545" r="11.5"/>
		<g>
			<path fill="#FFFFFF" d="M40.38,2.617h-4.065c-0.202,0-0.365,0.255-0.365,0.574V5.24c0,0.314,0.163,0.572,0.365,0.572h4.065
				c0.202,0,0.363-0.257,0.363-0.572V3.191C40.743,2.872,40.582,2.617,40.38,2.617z"/>
			<path fill="#FFFFFF" d="M40.38,5.812h-4.065c-0.202,0-0.365,0.258-0.365,0.576v2.045c0,0.318,0.163,0.574,0.365,0.574h4.065
				c0.202,0,0.363-0.256,0.363-0.574V6.387C40.743,6.07,40.582,5.812,40.38,5.812z"/>
			<path fill="#FFFFFF" d="M40.38,9.006h-4.065c-0.202,0-0.365,0.258-0.365,0.573v2.049c0,0.319,0.163,0.574,0.365,0.574h4.065
				c0.202,0,0.363-0.254,0.363-0.574V9.579C40.743,9.264,40.582,9.006,40.38,9.006z"/>
			<path fill="#FFFFFF" d="M35.586,5.812h-4.063c-0.2,0-0.363,0.258-0.363,0.576v2.045c0,0.318,0.163,0.574,0.363,0.574h4.063
				c0.202,0,0.363-0.256,0.363-0.574V6.387C35.949,6.07,35.788,5.812,35.586,5.812z"/>
			<path fill="#FFFFFF" d="M35.586,9.006h-4.063c-0.2,0-0.363,0.258-0.363,0.573v2.049c0,0.319,0.163,0.574,0.363,0.574h4.063
				c0.202,0,0.363-0.254,0.363-0.574V9.579C35.949,9.264,35.788,9.006,35.586,9.006z"/>
			<path fill="#FFFFFF" d="M30.795,9.006h-4.065c-0.199,0-0.361,0.258-0.361,0.573v2.049c0,0.319,0.162,0.574,0.361,0.574h4.065
				c0.202,0,0.364-0.254,0.364-0.574V9.579C31.159,9.264,30.997,9.006,30.795,9.006z"/>
		</g>
	</g>
	<polygon fill="#00A99D" points="26.434,15.659 33.677,28.204 40.919,15.659 	"/>
</g>
</svg>
