<?xml version="1.0" encoding="utf-8"?>
<!-- Generator: Adobe Illustrator 15.1.0, SVG Export Plug-In . SVG Version: 6.00 Build 0)  -->
<!DOCTYPE svg PUBLIC "-//W3C//DTD SVG 1.1//EN" "http://www.w3.org/Graphics/SVG/1.1/DTD/svg11.dtd">
<svg version="1.1" id="Vrstva_1" xmlns="http://www.w3.org/2000/svg" xmlns:xlink="http://www.w3.org/1999/xlink" x="0px" y="0px"
	 width="23px" height="32.159px" viewBox="21.937 -3.955 23 32.159" enable-background="new 21.937 -3.955 23 32.159"
	 xml:space="preserve">
<g>
	<g>
		<circle fill="#662D91" cx="33.437" cy="7.545" r="11.5"/>
		<g>
			<path fill="#FFFFFF" d="M40.778,7.135c0.455,0,0.87,0.195,1.325,0.48c0.063,0.039,0.116,0.065,0.153,0.065
				c0.055,0,0.079-0.039,0.116-0.116l0.494-1.143c0.026-0.079,0.053-0.129,0.053-0.182c0-0.065-0.039-0.117-0.131-0.181
				c-0.582-0.428-1.296-0.661-2.037-0.661c-1.023,0-1.819,0.33-2.381,0.898c0.386,0.547,0.575,1.316,0.575,2.256
				c0,1.181-0.182,1.999-0.777,2.699c-0.005,0.003-0.009,0.007-0.013,0.013c0.521,0.625,1.313,0.987,2.389,0.987
				c0.558,0,2.283-0.363,2.283-0.935c0-0.052-0.024-0.104-0.051-0.156l-0.494-0.96c-0.051-0.104-0.103-0.156-0.17-0.156
				c-0.049,0-0.116,0.025-0.206,0.077c-0.337,0.195-0.688,0.389-1.114,0.389c-0.535,0-1.052-0.389-1.052-1.647
				C39.741,7.552,40.271,7.135,40.778,7.135z"/>
			<path fill="#FFFFFF" d="M33.709,12.099c0,0.138-0.077,0.184-0.307,0.184h-2.587c-0.261,0-0.275-0.015-0.337-0.261l-0.582-2.188
				h-2.005l-0.629,2.188c-0.075,0.246-0.075,0.261-0.32,0.261h-2.389c-0.245,0-0.321-0.062-0.321-0.151
				c0-0.063,0.031-0.139,0.061-0.216l3.2-9.875c0.061-0.229,0.078-0.26,0.337-0.26h2.281c0.245,0,0.26,0.016,0.354,0.26l3.214,9.875
				C33.695,11.992,33.709,12.054,33.709,12.099z M29.162,5.976c-0.076-0.43-0.215-1.288-0.276-1.746
				c-0.061,0.489-0.169,1.3-0.259,1.746l-0.398,1.79h1.239L29.162,5.976z"/>
			<path fill="#FFFFFF" d="M35.892,5.384c-0.416,0-0.869,0.156-1.245,0.389v-2.92c0-0.168-0.015-0.22-0.116-0.22
				c-0.041,0-0.08,0.013-0.131,0.013l-1.896,0.26c-0.195,0.026-0.195,0.091-0.195,0.234v2.579l1.982,6.089
				c0.388,0.281,0.719,0.443,1.16,0.443c0.857,0,1.608-0.363,2.154-1c0.596-0.7,0.779-1.519,0.779-2.699
				C38.385,6.616,37.593,5.384,35.892,5.384z M35.178,10.654c-0.144,0-0.376-0.065-0.531-0.144V7.162
				c0.324-0.22,0.571-0.297,0.777-0.297c0.376,0,0.742,0.532,0.742,1.79C36.166,9.98,35.698,10.654,35.178,10.654z"/>
		</g>
	</g>
	<polygon fill="#662D91" points="26.434,15.659 33.677,28.204 40.919,15.659 	"/>
</g>
</svg>
