<?xml version="1.0" encoding="utf-8"?>
<!-- Generator: Adobe Illustrator 15.1.0, SVG Export Plug-In . SVG Version: 6.00 Build 0)  -->
<!DOCTYPE svg PUBLIC "-//W3C//DTD SVG 1.1//EN" "http://www.w3.org/Graphics/SVG/1.1/DTD/svg11.dtd">
<svg version="1.1" id="Vrstva_1" xmlns="http://www.w3.org/2000/svg" xmlns:xlink="http://www.w3.org/1999/xlink" x="0px" y="0px"
	 width="23px" height="32.159px" viewBox="27.937 -0.955 23 32.159" enable-background="new 27.937 -0.955 23 32.159"
	 xml:space="preserve">
<g>
	<g>
		<circle fill="#ED1C24" cx="39.437" cy="10.545" r="11.5"/>
		<g>
			<g id="heart_3_">
				<path fill="#FFFFFF" d="M42.669,3.872c-1.323-0.15-3.512,0.718-3.891,2.989c-0.383-2.271-2.571-3.139-3.894-2.989
					c-1.612,0.187-3.749,0.95-3.209,4.498c0.543,3.549,7.13,9.631,7.13,9.631s6.532-6.082,7.073-9.631
					C46.422,4.822,44.286,4.059,42.669,3.872z"/>
			</g>
			<g>
				<g>
					<rect x="36.035" y="9.608" fill="#FFFFFF" width="11.237" height="5.227"/>
					<rect x="38.778" y="7.042" fill="#FFFFFF" width="5.227" height="10.919"/>
				</g>
				<g>
					<rect x="36.817" y="10.696" fill="#ED1C24" width="9.148" height="3.05"/>
					<rect x="39.867" y="7.648" fill="#ED1C24" width="3.051" height="9.148"/>
				</g>
			</g>
		</g>
	</g>
	<polygon fill="#ED1C24" points="32.434,18.659 39.677,31.204 46.919,18.659 	"/>
</g>
</svg>
