<?xml version="1.0" encoding="utf-8"?>
<!-- Generator: Adobe Illustrator 15.1.0, SVG Export Plug-In . SVG Version: 6.00 Build 0)  -->
<!DOCTYPE svg PUBLIC "-//W3C//DTD SVG 1.1//EN" "http://www.w3.org/Graphics/SVG/1.1/DTD/svg11.dtd">
<svg version="1.1" id="Vrstva_1" xmlns="http://www.w3.org/2000/svg" xmlns:xlink="http://www.w3.org/1999/xlink" x="0px" y="0px"
	 width="23px" height="32.159px" viewBox="-0.063 0.044 23 32.159" enable-background="new -0.063 0.044 23 32.159"
	 xml:space="preserve">
<g>
	<g>
		<circle fill="#754C24" cx="11.437" cy="11.545" r="11.5"/>
		<g>
			<path fill="#FFFFFF" d="M11.74,8.705c-0.014-0.091-0.026-0.184-0.026-0.281c0-0.11-0.01-0.115,0.012-0.223
				c-1.107-0.384-2.336-0.549-3.728-0.51c-1.39,0.042-3.078,0.744-4.161,1.571c-0.244,1.252-0.179,1.185-0.179,2.274
				c0,1.713,0.371,3.044,1.298,4.337C5.897,12.504,8.542,10.022,11.74,8.705z"/>
			<path fill="#FFFFFF" d="M14.743,7.8c0.411-0.046,0.857-0.087,1.278-0.087c0.919,0,1.679-0.046,2.54,0.16
				c-1.164-2.461-3.098-3.911-5.93-4.181c0.496,0.986,0.721,2.055,0.913,3.172C14.266,6.994,14.436,7.203,14.743,7.8z"/>
			<path fill="#FFFFFF" d="M14.451,9.494c-0.139,0.147-0.188,0.208-0.375,0.297c0.165,0.695,0.273,1.467,0.31,2.131
				c0.166,3.011-0.468,5.571-2.368,7.523c0.135,0.007,0.794,0.013,0.921-0.014c2.909-0.576,3.551-1.048,5.202-3.186
				C17.694,13.934,16.394,10.868,14.451,9.494z"/>
			<path fill="#FFFFFF" d="M19.099,9.164c-0.958-0.563-2.05-0.786-3.064-0.786c-0.395,0-0.782,0.027-1.164,0.069
				c-0.002,0.215-0.002,0.295-0.08,0.48c1.977,1.312,3.571,2.875,4.282,5.074c0.296-1.025,0.352-1.398,0.386-2.463
				C19.484,10.569,19.419,10.021,19.099,9.164z"/>
			<path fill="#FFFFFF" d="M13.444,9.998c-0.047,0.002-0.1,0.006-0.15,0.006c-0.593,0-0.813-0.168-1.226-0.571
				c-3.071,1.377-5.229,4.479-5.948,7.884c0.573,0.497,0.573,0.497,1.266,0.932c0.172,0.108,0.352,0.205,0.531,0.298
				c0.791,0.413,0.961,0.486,2.022,0.756c2.161-1.782,3.663-4.556,3.663-7.5c0-0.588-0.051-1.17-0.143-1.736
				C13.451,10.044,13.447,10.021,13.444,9.998z"/>
			<path fill="#FFFFFF" d="M11.979,7.547c0.202-0.333,0.48-0.522,0.861-0.636c-0.03-0.183-0.066-0.365-0.107-0.543
				c-0.221-0.962-0.715-1.932-1.518-2.729c-0.139,0-0.19,0.017-0.241,0.017c-0.296,0,0,0-0.284,0.031
				c-0.225,0.025-0.443,0.06-0.662,0.105C7.79,4.229,6.038,5.363,4.911,7.266c1.094-0.352,2.113-0.455,3.32-0.455
				C9.537,6.811,10.813,7.14,11.979,7.547z"/>
			<circle fill="#754C24" cx="13.298" cy="8.601" r="2.55"/>
		</g>
	</g>
	<polygon fill="#754C24" points="4.434,19.658 11.676,32.203 18.919,19.658 	"/>
</g>
</svg>
