<?xml version="1.0" encoding="utf-8"?>
<!-- Generator: Adobe Illustrator 15.1.0, SVG Export Plug-In . SVG Version: 6.00 Build 0)  -->
<!DOCTYPE svg PUBLIC "-//W3C//DTD SVG 1.1//EN" "http://www.w3.org/Graphics/SVG/1.1/DTD/svg11.dtd">
<svg version="1.1" id="Vrstva_1" xmlns="http://www.w3.org/2000/svg" xmlns:xlink="http://www.w3.org/1999/xlink" x="0px" y="0px"
	 width="23px" height="32.317px" viewBox="4.937 -14.14 23 32.317" enable-background="new 4.937 -14.14 23 32.317"
	 xml:space="preserve">
<g>
	<g>
		<circle fill="#063F08" cx="16.438" cy="-2.64" r="11.5"/>
		<g transform="translate(-88.214 -154.15)">
			<path fill="none" stroke="#FFFFFF" stroke-width="0.5" d="M96.859,146.98h15.746v9.061H96.859V146.98z"/>
			<path fill="none" stroke="#FFFFFF" stroke-width="0.5" d="M96.805,148.808c1.07,0.113,2.295,0.618,2.616,1.197
				c0.42,0.756,0.369,2.222,0,3.013c-0.308,0.663-1.827,1.082-2.552,1.151"/>
			<path fill="none" stroke="#FFFFFF" stroke-width="0.5" d="M106.881,151.491c0,1.171-0.97,2.122-2.16,2.122
				s-2.152-0.95-2.152-2.122c0-1.171,0.962-2.121,2.152-2.121S106.881,150.32,106.881,151.491z"/>
			<path fill="none" stroke="#FFFFFF" stroke-width="0.5" d="M104.725,146.98v9.023"/>
			<path fill="none" stroke="#FFFFFF" stroke-width="0.5" d="M112.617,148.808c-1.069,0.113-2.245,0.594-2.569,1.175
				c-0.418,0.756-0.369,2.222,0.002,3.013c0.309,0.663,1.776,1.103,2.503,1.174"/>
		</g>
	</g>
	<polygon fill="#063F08" points="9.433,5.632 16.677,18.178 23.919,5.632 	"/>
</g>
</svg>
