<?xml version="1.0" encoding="utf-8"?>
<!-- Generator: Adobe Illustrator 15.1.0, SVG Export Plug-In . SVG Version: 6.00 Build 0)  -->
<!DOCTYPE svg PUBLIC "-//W3C//DTD SVG 1.1//EN" "http://www.w3.org/Graphics/SVG/1.1/DTD/svg11.dtd">
<svg version="1.1" id="Vrstva_1" xmlns="http://www.w3.org/2000/svg" xmlns:xlink="http://www.w3.org/1999/xlink" x="0px" y="0px"
	 width="23px" height="31.996px" viewBox="0 0 23 31.996" enable-background="new 0 0 23 31.996" xml:space="preserve">
<g>
	<g>
		<circle fill="#0071BC" cx="11.5" cy="11.501" r="11.5"/>
		<g>
			<g>
				<polygon fill="#FFFFFF" points="13.787,14.407 15.461,8.584 14.643,7.608 15.063,7.412 16.338,7.424 16.338,14.407 				"/>
				<g>
					<path fill="#FFFFFF" d="M13.18,13.011c-0.07,0-0.143-0.014-0.211-0.042c-0.277-0.116-0.41-0.437-0.293-0.716l1.883-4.505
						c0.115-0.278,0.437-0.41,0.715-0.294c0.277,0.116,0.41,0.437,0.293,0.715l-1.883,4.506
						C13.596,12.885,13.393,13.011,13.18,13.011z"/>
				</g>
				<g>
					<path fill="#FFFFFF" d="M15.486,18.521c-0.301,0-0.545-0.245-0.545-0.547v-3.567c0-0.302,0.244-0.547,0.545-0.547
						c0.303,0,0.547,0.245,0.547,0.547v3.567C16.033,18.276,15.789,18.521,15.486,18.521z"/>
				</g>
				<polygon fill="#FFFFFF" points="18.889,14.407 17.214,8.584 18.031,7.608 17.611,7.412 16.338,7.424 16.338,14.407 				"/>
				<g>
					<path fill="#FFFFFF" d="M19.495,13.011c0.069,0,0.142-0.014,0.21-0.042c0.279-0.116,0.41-0.437,0.294-0.716l-1.882-4.505
						C18,7.47,17.68,7.338,17.4,7.454c-0.278,0.116-0.408,0.437-0.293,0.715l1.883,4.506C19.078,12.885,19.281,13.011,19.495,13.011
						z"/>
				</g>
				<g>
					<path fill="#FFFFFF" d="M17.188,18.521c0.301,0,0.547-0.245,0.547-0.547v-3.567c0-0.302-0.246-0.547-0.547-0.547
						c-0.303,0-0.547,0.245-0.547,0.547v3.567C16.641,18.276,16.885,18.521,17.188,18.521z"/>
				</g>
				<g>
					<path fill="#FFFFFF" d="M6.057,18.521c-0.301,0-0.546-0.245-0.546-0.547v-4.903c0-0.302,0.245-0.547,0.546-0.547
						c0.303,0,0.547,0.245,0.547,0.547v4.903C6.604,18.276,6.359,18.521,6.057,18.521z"/>
				</g>
				<g>
					<path fill="#FFFFFF" d="M7.864,18.521c0.302,0,0.547-0.245,0.547-0.547v-4.903c0-0.302-0.245-0.547-0.547-0.547
						c-0.302,0-0.546,0.245-0.546,0.547v4.903C7.318,18.276,7.563,18.521,7.864,18.521z"/>
				</g>
				<circle fill="#FFFFFF" cx="16.337" cy="5.62" r="1.354"/>
				<circle fill="#FFFFFF" cx="6.986" cy="5.62" r="1.354"/>
				<path fill="#FFFFFF" d="M7.419,13.405H6.502c-0.545,0-0.991-0.446-0.991-0.992v-4.01c0-0.545,0.446-0.991,0.991-0.991h0.917
					c0.546,0,0.992,0.446,0.992,0.991v4.01C8.411,12.959,7.965,13.405,7.419,13.405z"/>
				<g>
					<path fill="#FFFFFF" d="M4.781,13.071c-0.268,0-0.485-0.218-0.485-0.486V9.002c0-0.87,0.708-1.579,1.579-1.579
						c0.268,0,0.485,0.218,0.485,0.486c0,0.268-0.217,0.487-0.485,0.487c-0.335,0-0.607,0.271-0.607,0.606v3.583
						C5.268,12.854,5.051,13.071,4.781,13.071z"/>
				</g>
				<g>
					<path fill="#FFFFFF" d="M9.189,13.071c-0.268,0-0.485-0.218-0.485-0.486V9.002c0-0.335-0.272-0.606-0.607-0.606
						c-0.269,0-0.485-0.218-0.485-0.486c0-0.268,0.217-0.486,0.485-0.486c0.87,0,1.579,0.709,1.579,1.579v3.583
						C9.676,12.854,9.458,13.071,9.189,13.071z"/>
				</g>
			</g>
			<rect x="11.09" y="4.79" fill="#FFFFFF" width="0.609" height="13.625"/>
		</g>
	</g>
	<polygon fill="#0071BC" points="4.497,19.451 11.74,31.996 18.982,19.451 	"/>
</g>
</svg>
