<?xml version="1.0" encoding="utf-8"?>
<!-- Generator: Adobe Illustrator 15.1.0, SVG Export Plug-In . SVG Version: 6.00 Build 0)  -->
<!DOCTYPE svg PUBLIC "-//W3C//DTD SVG 1.1//EN" "http://www.w3.org/Graphics/SVG/1.1/DTD/svg11.dtd">
<svg version="1.1" id="Vrstva_1" xmlns="http://www.w3.org/2000/svg" xmlns:xlink="http://www.w3.org/1999/xlink" x="0px" y="0px"
	 width="23px" height="31.95px" viewBox="0 0 23 31.95" enable-background="new 0 0 23 31.95" xml:space="preserve">
<g>
	<circle fill="#9E005D" cx="11.5" cy="11.502" r="11.5"/>
	<g>
		<g>
			<rect x="11.011" y="13.087" fill="#FFFFFF" width="1.479" height="4.604"/>
			<rect x="10.313" y="16.993" fill="#FFFFFF" width="2.873" height="1.397"/>
			<rect x="8.771" y="18.25" fill="#FFFFFF" width="5.958" height="1.961"/>
		</g>
		<g>
			<g>
				<path fill="#FFFFFF" d="M11.753,15.887h0.905c0,0,0.313-0.416,0.695-3.687c0,0,0.278-0.279,0.453-0.73
					c0,0,0.418-1.53,0.172-3.93c0,0-0.207-0.521-2.227-0.801h-0.007C9.728,7.019,9.521,7.54,9.521,7.54
					c-0.245,2.399,0.175,3.93,0.175,3.93c0.172,0.451,0.449,0.73,0.449,0.73c0.385,3.271,0.697,3.687,0.697,3.687h0.904H11.753z"/>
			</g>
			<circle fill="#FFFFFF" cx="11.754" cy="4.648" r="1.783"/>
		</g>
	</g>
</g>
<polygon fill="#9E005D" points="4.497,19.405 11.74,31.95 18.982,19.405 "/>
</svg>
