<?xml version="1.0" encoding="utf-8"?>
<!-- Generator: Adobe Illustrator 15.1.0, SVG Export Plug-In . SVG Version: 6.00 Build 0)  -->
<!DOCTYPE svg PUBLIC "-//W3C//DTD SVG 1.1//EN" "http://www.w3.org/Graphics/SVG/1.1/DTD/svg11.dtd">
<svg version="1.1" id="Vrstva_1" xmlns="http://www.w3.org/2000/svg" xmlns:xlink="http://www.w3.org/1999/xlink" x="0px" y="0px"
	 width="23px" height="32.159px" viewBox="13.937 -3.955 23 32.159" enable-background="new 13.937 -3.955 23 32.159"
	 xml:space="preserve">
<g>
	<g>
		<circle fill="#F94008" cx="25.437" cy="7.545" r="11.5"/>
		<g>
			<path fill="#FFFFFF" d="M28.964,11.959c0.273,0.11,0.415,0.223,0.415,0.329c0,0.261-0.445,0.774-1.332,1.539
				c-1.194,1.037-2.303,1.561-3.324,1.561c-0.747,0-1.123-0.351-1.123-1.05c0-0.294,0.157-1.204,0.462-2.726l0.601-2.937
				l0.154-0.749l0.121-0.597c0.051-0.247,0.073-0.463,0.073-0.635c0-0.36-0.139-0.544-0.421-0.544c-0.794,0-1.651,0.619-2.563,1.853
				c-0.195-0.116-0.294-0.244-0.294-0.366c0-0.441,0.576-1.031,1.724-1.775c1.149-0.749,2.068-1.114,2.748-1.114
				c0.766,0,1.152,0.371,1.152,1.125c0,0.144-0.041,0.438-0.123,0.882l-0.141,0.727c-0.011,0.056-0.063,0.349-0.166,0.878
				l-0.631,3.087l-0.148,0.692c-0.137,0.687-0.2,1.144-0.2,1.374c0,0.308,0.126,0.464,0.378,0.464
				C27.18,13.978,28.062,13.306,28.964,11.959z"/>
			<path fill="#FFFFFF" d="M28.395,1.66c0,1.085-0.938,1.961-2.098,1.961c-1.153,0-2.097-0.875-2.097-1.961
				c0-1.082,0.943-1.955,2.097-1.955C27.457-0.295,28.395,0.578,28.395,1.66z"/>
		</g>
	</g>
	<polygon fill="#F94008" points="18.434,15.659 25.677,28.204 32.919,15.659 	"/>
</g>
</svg>
