<?xml version="1.0" encoding="utf-8"?>
<!-- Generator: Adobe Illustrator 15.1.0, SVG Export Plug-In . SVG Version: 6.00 Build 0)  -->
<!DOCTYPE svg PUBLIC "-//W3C//DTD SVG 1.1//EN" "http://www.w3.org/Graphics/SVG/1.1/DTD/svg11.dtd">
<svg version="1.1" id="Vrstva_1" xmlns="http://www.w3.org/2000/svg" xmlns:xlink="http://www.w3.org/1999/xlink" x="0px" y="0px"
	 width="23px" height="31.996px" viewBox="0 0 23 31.996" enable-background="new 0 0 23 31.996" xml:space="preserve">
<g>
	<circle fill="#005889" cx="11.5" cy="11.501" r="11.5"/>
</g>
<polygon fill="#005889" points="4.497,19.451 11.74,31.996 18.982,19.451 "/>
<g id="svgg_5_">
	<path id="path0_5_" fill="#FFFFFF" d="M7.91,4.051C6.331,4.384,5.23,5.647,5.135,7.238C5.104,7.755,5.307,8.044,5.702,8.046
		c0.389,0.002,0.555-0.195,0.617-0.733c0.299-2.574,3.774-2.952,4.489-0.488c0.095,0.327,0.096,0.321-0.035,0.264
		C9.805,6.66,8.627,6.913,7.98,7.688C7.602,8.142,7.682,8.626,8.162,8.78c0.243,0.078,0.414,0.006,0.73-0.307
		c0.535-0.528,1.211-0.557,1.691-0.07c0.274,0.277,0.329,0.5,0.329,1.351v0.612H11.5h0.588V9.754c0-0.851,0.055-1.073,0.329-1.351
		c0.479-0.486,1.153-0.459,1.688,0.069c0.332,0.327,0.526,0.399,0.791,0.29c0.424-0.174,0.488-0.628,0.147-1.043
		c-0.655-0.803-1.833-1.066-2.817-0.632c-0.131,0.058-0.129,0.063-0.035-0.264c0.57-1.966,3.244-2.252,4.225-0.451
		c0.143,0.265,0.219,0.532,0.268,0.96c0.062,0.511,0.19,0.676,0.557,0.705c0.553,0.045,0.748-0.408,0.563-1.299
		c-0.611-2.921-4.359-3.744-6.221-1.366L11.5,5.476l-0.08-0.103C10.579,4.299,9.199,3.778,7.91,4.051 M5.22,10.864
		c-0.816,0.209-0.626,1.509,0.221,1.509c0.169,0,0.171,0.001,0.332,0.269c1.036,1.715,3.843,2.936,6.293,2.734
		c2.144-0.176,4.304-1.319,5.156-2.729l0.158-0.264l0.221-0.02c0.797-0.072,0.984-1.086,0.269-1.455
		C17.732,10.839,5.488,10.795,5.22,10.864 M10.325,14.11v0.631l-2.979,0.008l-2.979,0.008L4.24,14.846
		c-0.472,0.327-0.256,1.071,0.313,1.071c0.131,0,0.134,0.003,0.211,0.154c0.36,0.713,0.983,1.221,1.82,1.481l0.262,0.082l4.523,0.01
		c3.329,0.007,4.581,0,4.741-0.023c0.91-0.144,1.809-0.799,2.147-1.569c0.06-0.132,0.063-0.135,0.195-0.135
		c0.647,0,0.786-0.971,0.161-1.145c-0.07-0.02-1.108-0.03-3.023-0.03h-2.914V14.11c0-0.543-0.008-0.631-0.046-0.631
		c-0.024,0-0.181,0.021-0.345,0.047c-0.186,0.028-0.487,0.047-0.786,0.047c-0.298,0-0.6-0.02-0.785-0.047
		c-0.166-0.026-0.32-0.047-0.346-0.047C10.332,13.479,10.325,13.567,10.325,14.11"/>
</g>
</svg>
