<?xml version="1.0" encoding="utf-8"?>
<!-- Generator: Adobe Illustrator 15.1.0, SVG Export Plug-In . SVG Version: 6.00 Build 0)  -->
<!DOCTYPE svg PUBLIC "-//W3C//DTD SVG 1.1//EN" "http://www.w3.org/Graphics/SVG/1.1/DTD/svg11.dtd">
<svg version="1.1" id="Vrstva_1" xmlns="http://www.w3.org/2000/svg" xmlns:xlink="http://www.w3.org/1999/xlink" x="0px" y="0px"
	 width="23px" height="32.814px" viewBox="0 0 23 32.814" enable-background="new 0 0 23 32.814" xml:space="preserve">
<g>
	<g>
		<circle fill="#ED1C24" cx="11.5" cy="11.501" r="11.5"/>
		<g>
			<g>
				<path fill="#FFFFFF" d="M3.775,9.037h3.621l1.779,3.187l-1.023-0.502l-1.35,2.247c0,0-1.711,0.136-2.758-0.778
					c0,0-0.691-0.619-0.076-1.736l0.835-1.677L3.775,9.037z"/>
				<path fill="#FFFFFF" d="M3.86,13.397c0,0,0.382,0.974,2.954,0.906h3.717v3.748H7.636c0,0-1.088,0.127-1.743-0.988L3.86,13.397z"
					/>
			</g>
			<g>
				<path fill="#FFFFFF" d="M13.436,19.21l-1.853-3.113l1.835-3.157l0.092,1.137l2.621,0.014c0,0,0.988,1.404,0.734,2.775
					c0,0-0.182,0.905-1.453,0.946l-1.871,0.137L13.436,19.21z"/>
				<path fill="#FFFFFF" d="M17.141,16.964c0,0,0.646-0.82-0.727-3l-1.896-3.197l3.227-1.911l1.477,2.489
					c0,0,0.666,0.875,0.036,2.005L17.141,16.964z"/>
			</g>
			<g>
				<path fill="#FFFFFF" d="M17.339,5.844l-1.758,3.165l-3.649,0.01l0.936-0.65l-1.311-2.271c0,0,0.714-1.561,2.021-2.034
					c0,0,0.875-0.3,1.557,0.776l1.059,1.545L17.339,5.844z"/>
				<path fill="#FFFFFF" d="M13.529,3.796c0,0-1.033-0.144-2.225,2.142l-1.8,3.247L6.225,7.367l1.405-2.53
					c0,0,0.419-1.015,1.711-1.046L13.529,3.796z"/>
			</g>
		</g>
	</g>
	<polygon fill="#ED1C24" points="4.498,20.271 11.74,32.815 18.982,20.271 	"/>
</g>
</svg>
