<?xml version="1.0" encoding="utf-8"?>
<!-- Generator: Adobe Illustrator 15.1.0, SVG Export Plug-In . SVG Version: 6.00 Build 0)  -->
<!DOCTYPE svg PUBLIC "-//W3C//DTD SVG 1.1//EN" "http://www.w3.org/Graphics/SVG/1.1/DTD/svg11.dtd">
<svg version="1.1" id="Vrstva_1" xmlns="http://www.w3.org/2000/svg" xmlns:xlink="http://www.w3.org/1999/xlink" x="0px" y="0px"
	 width="23px" height="31.95px" viewBox="0 0 23 31.95" enable-background="new 0 0 23 31.95" xml:space="preserve">
<g>
	<g>
		<circle fill="#C1272D" cx="11.5" cy="11.502" r="11.5"/>
		<g>
			<g>
				<path fill="#FFFFFF" d="M4.564,16.991c0-2.354,0-4.706,0-7.059c0-1.065,0-2.131,0-3.196c0-1.412,2.744-0.982,3.552-0.982
					c0.597,0,3.862-0.449,3.862,0.773c0,0.99,0,1.98,0,2.97c0,2.497,0,4.993,0,7.489c0,0.483,0.75,0.489,0.75,0.007
					c0-3.007,0-6.013,0-9.018c0-0.777,0.193-1.937-0.426-2.548c-0.806-0.796-2.75-0.422-3.728-0.422
					c-0.966,0-2.87-0.384-3.781,0.134c-1.069,0.608-0.98,1.427-0.98,2.513c0,3.112,0,6.224,0,9.335
					C3.814,17.469,4.564,17.475,4.564,16.991L4.564,16.991z"/>
			</g>
		</g>
		<g>
			<g>
				<path fill="#FFFFFF" d="M13.902,16.991c0-1.637,0-3.273,0-4.91c0-0.742,0-1.482,0-2.224c0-0.855,1.863-0.569,2.354-0.569
					c0.345,0,2.573-0.283,2.573,0.422c0,0.689,0,1.377,0,2.066c0,1.736,0,3.473,0,5.209c0,0.484,0.75,0.489,0.75,0.006
					c0-2.091,0-4.182,0-6.273c0-0.582,0.132-1.398-0.329-1.854c-0.592-0.584-1.948-0.327-2.673-0.327
					c-0.696,0-2.031-0.264-2.688,0.109c-0.781,0.444-0.738,1.051-0.738,1.845c0,2.165,0,4.33,0,6.494
					C13.152,17.469,13.902,17.475,13.902,16.991L13.902,16.991z"/>
			</g>
		</g>
	</g>
	<polygon fill="#C1272D" points="4.497,19.405 11.74,31.95 18.982,19.405 	"/>
</g>
</svg>
