<?xml version="1.0" encoding="utf-8"?>
<!-- Generator: Adobe Illustrator 15.1.0, SVG Export Plug-In . SVG Version: 6.00 Build 0)  -->
<!DOCTYPE svg PUBLIC "-//W3C//DTD SVG 1.1//EN" "http://www.w3.org/Graphics/SVG/1.1/DTD/svg11.dtd">
<svg version="1.1" id="Vrstva_1" xmlns="http://www.w3.org/2000/svg" xmlns:xlink="http://www.w3.org/1999/xlink" x="0px" y="0px"
	 width="23px" height="32.159px" viewBox="19.937 6.045 23 32.159" enable-background="new 19.937 6.045 23 32.159"
	 xml:space="preserve">
<g>
	<g>
		<circle fill="#C1272D" cx="31.437" cy="17.546" r="11.5"/>
		<g id="cross">
			<g>
				<path fill="#FFFFFF" d="M28.559,20.27h-4.923v-5.805h4.923V9.459h5.809v5.006h5.081v5.805h-5.081v5.005h-5.809V20.27z
					 M29.408,24.589h4.268l-0.037-5.104l5.056,0.004v-4.296l-5.056-0.001c0,0,0.002-3.609-0.004-5.103h-4.316
					c0.002,1.494,0,5.103,0,5.103l-4.979,0.001v4.296h5.021L29.408,24.589z"/>
				<path fill="#FFFFFF" d="M30.196,23.83l2.644-0.009l-0.004-5.172l5.016,0.01v-2.621l-5.048-0.023c0,0,0.002-3.799,0-5.132
					l-2.708-0.002c0.007,1.329,0,5.128,0,5.128l-4.938,0.01v2.642l5.038,0.006V23.83z"/>
			</g>
		</g>
	</g>
	<polygon fill="#C1272D" points="24.434,25.659 31.677,38.204 38.919,25.659 	"/>
</g>
</svg>
