<?xml version="1.0" encoding="utf-8"?>
<!-- Generator: Adobe Illustrator 15.1.0, SVG Export Plug-In . SVG Version: 6.00 Build 0)  -->
<!DOCTYPE svg PUBLIC "-//W3C//DTD SVG 1.1//EN" "http://www.w3.org/Graphics/SVG/1.1/DTD/svg11.dtd">
<svg version="1.1" id="Vrstva_1" xmlns="http://www.w3.org/2000/svg" xmlns:xlink="http://www.w3.org/1999/xlink" x="0px" y="0px"
	 width="23px" height="32.159px" viewBox="-4.063 6.045 23 32.159" enable-background="new -4.063 6.045 23 32.159"
	 xml:space="preserve">
<g>
	<g>
		<circle fill="#006837" cx="7.437" cy="17.546" r="11.5"/>
		<path fill="#FFFFFF" d="M1.03,22.569c1.063-0.449,2.806-1.219,3.091-1.34c0.002,0.003,0.007,0.009,0.007,0.009l0,0
			c0.483-0.206,1.388-0.614,1.799-0.93l0.002,0.007c0,0,2.285-1.216,4.47-3.479c0.459-0.438,1.258-1.418,1.928-3.324
			c0,0,0.294-0.557,0.316-0.068c0,0-0.425,3.805-3.408,6.2c-1.333,1.065-3.826,2.61-3.826,2.61c2.909,1.978,5.423-0.504,5.423-0.504
			c4.874-4.931,2.195-10.944,2.195-10.944c-2.794,3.565-5.599,1.96-8.731,4.506c-2.027,1.642-1.235,4.26-0.56,5.36
			c-0.859,0.441-2.267,0.598-2.913,0.652"/>
	</g>
	<polygon fill="#006837" points="0.434,25.659 7.677,38.204 14.919,25.659 	"/>
</g>
</svg>
