<?xml version="1.0" encoding="utf-8"?>
<!-- Generator: Adobe Illustrator 15.1.0, SVG Export Plug-In . SVG Version: 6.00 Build 0)  -->
<!DOCTYPE svg PUBLIC "-//W3C//DTD SVG 1.0//EN" "http://www.w3.org/TR/2001/REC-SVG-20010904/DTD/svg10.dtd">
<svg version="1.0" id="Vrstva_1" xmlns="http://www.w3.org/2000/svg" xmlns:xlink="http://www.w3.org/1999/xlink" x="0px" y="0px"
	 width="200px" height="61px" viewBox="0 0 200 61" enable-background="new 0 0 200 61" xml:space="preserve">
<g>
	<path fill="#808080" d="M81.561,0l-4.072,1.085c0,0-14.108,8.406-14.823,8.839C58.508,6.76,52.307,6.689,47.7,6.689
		c-4.677,0-8.283,0.309-10.723,0.923c-1.316,0.364-2.364,0.882-3.359,1.475c-0.262-0.162-0.552-0.339-0.552-0.339
		c-3.346-1.725-7.032-2.059-12.278-2.059c-6.564,0-9.854,0.274-13.235,1.976c-4.338,2.212-6.543,5.587-6.791,10.344
		c0,0.006-0.008,0.359-0.008,0.359l0.263,1.479c0,0,0.02,0.068,0.037,0.129C0.357,22.672,0,24.32,0,26.134
		c0,12.834,12.432,12.834,17.111,12.834c2.448,0,4.521-0.203,6.354-0.605c0.334,0.045,1.716,0.219,1.716,0.219h6.456
		c1.33,0,2.63-0.369,3.82-0.99c2.893,1.148,6.022,1.377,11.384,1.377c5.863,0,9.304-0.293,11.878-1.021
		c2.569-0.715,4.627-2.039,6.206-3.854c0.513,0,10.632,0,11.402,0c1.274,2.684,4.047,4.488,7.144,4.488h6.945
		c2.336,0,4.438-1.121,5.91-2.852c3.837,2.832,8.557,3.238,11.842,3.238c2.229,0,4.256-0.248,6.074-0.688
		c0.32,0.053,2,0.301,2,0.301h6.303c0,0,1.985-0.342,2.385-0.41c0.401,0.068,2.382,0.41,2.382,0.41h7.474
		c1.588,0,3.096-0.514,4.437-1.379c3.634,1.521,7.935,1.766,12.08,1.766c2.636,0,7.001-0.025,10.972-1.43
		c1.209,0.656,2.542,1.043,3.926,1.043h21.278c4.388,0,7.955-3.361,7.955-7.496v-4.099c0-1.443-0.557-2.823-1.529-4.132
		c0.721-1.165,1.154-2.424,1.154-3.69v-4.597c0-4.131-3.567-7.494-7.952-7.494h-20.153c-1.504,0-2.946,0.451-4.225,1.218
		c-4.058-1.575-8.652-1.604-11.731-1.604c-6.703,0-10.676,0.758-13.727,2.625c-2.813,1.734-4.653,4.364-5.631,7.703
		c-0.369,0-0.654,0-1.145,0c0-0.843,0-2.448,0-2.448c0-4.131-3.566-7.494-7.949-7.494h-6.455c-2.063,0-3.934,0.879-5.443,2.305
		c-1.51-1.425-3.377-2.305-5.439-2.305h-6.461c0,0-0.244,0.023-0.461,0.045C98.073,3.168,94.66,0,90.417,0H81.561z M63.072,11.313
		l15.017-8.981l3.674-0.979l8.654,0.026c3.577,0,6.486,2.743,6.486,6.114v1.147l1.844-0.185h6.461c1.863,0,3.594,0.796,4.879,2.224
		l0.559,0.625l0.563-0.625c1.289-1.428,3.023-2.224,4.883-2.224h6.455c3.577,0,6.486,2.746,6.486,6.114v3.823h3.66l0.131-0.525
		c0.834-3.275,2.598-5.763,5.246-7.388c2.789-1.717,6.533-2.412,12.928-2.412c3.041,0,7.633,0,11.49,1.598l0.377,0.156l0.337-0.226
		c1.112-0.744,2.408-1.141,3.752-1.141h20.153c3.575,0,6.484,2.746,6.484,6.114v4.597c0,1.136-0.384,2.292-1.113,3.339l-0.288,0.413
		l0.323,0.394c0.971,1.167,1.456,2.404,1.456,3.677v4.099c0,3.371-2.913,6.113-6.49,6.113H166.2c-1.227,0-2.43-0.34-3.482-0.975
		l-0.316-0.191l-0.348,0.129c-3.791,1.43-8.148,1.43-10.751,1.43c-5.614,0-9.036-0.51-11.819-1.762l-0.406-0.18l-0.354,0.258
		c-1.165,0.846-2.527,1.291-3.938,1.291h-7.474l-2.271-0.391l-0.352,0.02l-2.145,0.371h-6.303l-1.928-0.293l-0.246,0.016
		c-1.738,0.441-3.724,0.67-5.9,0.67c-3.203,0-7.873-0.34-11.426-3.236l-0.631-0.518l-0.461,0.658
		c-1.203,1.715-3.107,2.703-5.234,2.703h-6.945c-2.707,0-5.078-1.586-6.03-4.037l-0.178-0.451H64.286l-0.222,0.271
		c-1.411,1.746-3.349,2.971-5.761,3.641c-2.433,0.688-5.753,0.969-11.462,0.969c-5.344,0-8.369-0.205-11.108-1.371l-0.355-0.152
		l-0.333,0.195c-1.043,0.613-2.222,0.936-3.408,0.936h-6.456l-1.692-0.213L23.267,37c-1.752,0.396-3.764,0.592-6.156,0.592
		c-5.079,0-15.646,0-15.646-11.458c0-1.717,0.328-3.276,1.027-4.887l0.094-0.212l-0.152-0.541l-0.216-1.127l0.008-0.298
		c0.219-4.227,2.175-7.226,5.979-9.172c3.138-1.58,6.276-1.831,12.583-1.831c5.006,0,8.503,0.307,11.563,1.887
		c-0.01-0.004,0.788,0.481,0.788,0.481l0.412,0.248l0.42-0.248c0.974-0.637,2.061-1.125,3.238-1.451
		c2.461-0.619,5.944-0.917,10.492-0.917c4.542,0,10.76,0,14.488,3.171l0.412,0.355L63.072,11.313z"/>
	<g>
		<path fill="#808080" d="M0.35,50.631c0.037-2.047,0.673-2.523,3.395-2.523c2.757,0,3.544,0.678,3.544,3.033v5.621H6.043
			l0.092-0.914l-0.02-0.016c-0.527,0.801-1.24,1.057-2.904,1.057C0.84,56.889,0,56.213,0,54.297c0-0.984,0.312-1.861,0.785-2.209
			c0.458-0.328,1.316-0.51,2.482-0.51c0.914,0,1.644,0.107,2.155,0.311c0.294,0.105,0.42,0.236,0.585,0.564l0.036-0.018v-1.023
			c0-1.971-0.346-2.332-2.227-2.332c-1.715,0-2.227,0.289-2.227,1.275v0.275H0.35z M1.295,54.098c0,1.424,0.404,1.734,2.155,1.734
			c1.116,0,1.9-0.166,2.283-0.494C5.99,55.137,6.1,54.793,6.1,54.26c0-1.293-0.549-1.68-2.409-1.68
			C1.715,52.58,1.295,52.84,1.295,54.098z"/>
		<path fill="#808080" d="M17.146,56.762h-1.242l0.055-1.113H15.94c-0.421,0.859-1.245,1.24-2.756,1.24
			c-1.207,0-2.082-0.291-2.594-0.859c-0.583-0.637-0.804-1.656-0.804-3.65c0-3.191,0.841-4.271,3.304-4.271
			c0.895,0,1.606,0.146,2.137,0.42c0.347,0.182,0.494,0.365,0.641,0.791l0.036-0.023v-4.707h1.242V56.762z M11.667,49.605
			c-0.384,0.385-0.584,1.318-0.584,2.706c0,1.767,0.2,2.735,0.654,3.101c0.35,0.291,0.898,0.42,1.719,0.42
			c0.913,0,1.513-0.166,1.88-0.51c0.384-0.35,0.567-1.412,0.567-3.068c0-2.395-0.547-3.088-2.465-3.088
			C12.617,49.166,11.94,49.336,11.667,49.605z"/>
		<path fill="#808080" d="M23.224,56.762h-1.79l-2.83-8.525h1.297l1.496,4.637c0.294,0.914,0.604,1.881,0.932,2.924h0.02
			c0.291-0.969,0.583-1.938,0.893-2.906l1.444-4.654h1.387L23.224,56.762z"/>
		<path fill="#808080" d="M27.625,50.631c0.036-2.047,0.673-2.523,3.395-2.523c2.758,0,3.541,0.678,3.541,3.033v5.621h-1.241
			l0.092-0.914l-0.018-0.016c-0.531,0.801-1.241,1.057-2.903,1.057c-2.373,0-3.215-0.676-3.215-2.592
			c0-0.984,0.312-1.861,0.789-2.209c0.455-0.328,1.313-0.51,2.482-0.51c0.914,0,1.643,0.107,2.154,0.311
			c0.293,0.105,0.42,0.236,0.583,0.564l0.037-0.018v-1.023c0-1.971-0.345-2.332-2.225-2.332c-1.718,0-2.229,0.289-2.229,1.275v0.275
			H27.625z M28.574,54.098c0,1.424,0.4,1.734,2.154,1.734c1.115,0,1.897-0.166,2.283-0.494c0.255-0.201,0.362-0.545,0.362-1.078
			c0-1.293-0.544-1.68-2.41-1.68C28.994,52.58,28.574,52.84,28.574,54.098z"/>
		<path fill="#808080" d="M38.542,48.236l-0.02,1.168l0.02,0.02c0.253-0.584,0.529-0.84,1.149-1.057
			c0.438-0.166,1.021-0.26,1.698-0.26c1.405,0,2.338,0.369,2.774,1.098c0.222,0.361,0.294,0.84,0.294,2.01v5.547h-1.24v-5.438
			c0-0.914-0.04-1.169-0.202-1.5c-0.222-0.477-0.751-0.658-1.806-0.658c-1.885,0-2.613,0.693-2.613,2.465v5.131H37.3v-8.525H38.542z
			"/>
		<path fill="#808080" d="M54.239,53.68c0.021,2.518-0.747,3.209-3.612,3.209c-3.031,0-3.743-0.859-3.743-4.49
			c0-3.361,0.822-4.291,3.762-4.291c1.843,0,2.847,0.42,3.233,1.354c0.163,0.381,0.218,0.768,0.218,1.553h-1.24v-0.24
			c0-1.242-0.53-1.607-2.28-1.607c-1.081,0-1.61,0.152-1.938,0.494c-0.293,0.33-0.455,1.354-0.455,2.863
			c0,1.426,0.162,2.375,0.511,2.83c0.253,0.35,0.855,0.479,2.17,0.479c1.81,0,2.136-0.33,2.136-2.152H54.239z"/>
		<path fill="#808080" d="M63.607,54.191c0.021,0.143,0.021,0.287,0.021,0.342c0,1.754-0.951,2.355-3.672,2.355
			c-3.084,0-3.797-0.836-3.797-4.416c0-3.525,0.729-4.365,3.833-4.365c2.099,0,2.94,0.402,3.359,1.627
			c0.203,0.602,0.256,1.096,0.256,2.99h-6.133c0.017,2.707,0.327,3.107,2.462,3.107c2.139,0,2.413-0.184,2.393-1.641H63.607z
			 M62.329,51.76c-0.02-1.186-0.035-1.385-0.184-1.789c-0.217-0.635-0.764-0.857-2.136-0.857c-2.115,0-2.535,0.418-2.519,2.646
			H62.329z"/>
		<path fill="#808080" d="M73.12,56.762h-1.244l0.057-1.113h-0.018c-0.42,0.859-1.238,1.24-2.757,1.24
			c-1.204,0-2.082-0.291-2.593-0.859c-0.584-0.637-0.802-1.656-0.802-3.65c0-3.191,0.839-4.271,3.305-4.271
			c0.893,0,1.608,0.146,2.135,0.42c0.347,0.182,0.492,0.365,0.64,0.791l0.033-0.023v-4.707h1.244V56.762z M67.642,49.605
			c-0.383,0.385-0.584,1.318-0.584,2.706c0,1.767,0.201,2.735,0.658,3.101c0.348,0.291,0.898,0.42,1.719,0.42
			c0.91,0,1.514-0.166,1.878-0.51c0.383-0.35,0.563-1.412,0.563-3.068c0-2.395-0.545-3.088-2.461-3.088
			C68.592,49.166,67.919,49.336,67.642,49.605z"/>
		<path fill="#808080" d="M86.065,50.465c-0.02-1.223-0.236-1.352-2.191-1.352c-1.936,0-2.207,0.162-2.207,1.352
			c0,0.859,0.199,1.199,0.729,1.295c0.292,0.055,0.346,0.055,2.831,0.164c1.002,0.057,1.532,0.256,1.876,0.73
			c0.312,0.4,0.457,0.965,0.457,1.719c0,0.857-0.234,1.529-0.675,1.914c-0.526,0.443-1.313,0.602-3.011,0.602
			c-1.553,0-2.266-0.143-2.848-0.584c-0.457-0.344-0.713-0.967-0.713-1.771c0-0.107,0-0.311,0.02-0.49h1.275
			c-0.016,0.148-0.016,0.33-0.016,0.4c0,0.494,0.127,0.895,0.363,1.135c0.221,0.199,0.838,0.309,1.881,0.309
			c1.188,0,1.934-0.164,2.172-0.455c0.183-0.242,0.273-0.604,0.273-1.098c0-1.059-0.253-1.332-1.22-1.352
			c-1.279,0-2.778-0.129-3.271-0.258c-1.001-0.234-1.386-0.852-1.386-2.225c0-1.898,0.713-2.393,3.521-2.393
			c1.864,0,2.739,0.277,3.143,0.951c0.183,0.328,0.239,0.621,0.239,1.406H86.065z"/>
		<path fill="#808080" d="M93.423,57.258c-0.254,0.945-0.586,1.805-0.858,2.264c-0.386,0.654-1.151,1.055-2.046,1.055
			c-0.184,0-0.326-0.016-0.602-0.051v-1.039c0.146,0.02,0.311,0.035,0.385,0.035c0.968,0,1.295-0.479,1.86-2.76h-0.454l-3.088-8.525
			h1.315l1.315,3.797c0.582,1.646,0.675,1.916,0.857,2.465l0.456,1.334h0.036c0.31-1.279,0.621-2.539,0.932-3.799l0.969-3.797h1.332
			L93.423,57.258z"/>
		<path fill="#808080" d="M102.878,50.465c-0.018-1.223-0.236-1.352-2.192-1.352c-1.934,0-2.206,0.162-2.206,1.352
			c0,0.859,0.198,1.199,0.73,1.295c0.293,0.055,0.348,0.055,2.828,0.164c1.006,0.057,1.533,0.256,1.883,0.73
			c0.311,0.4,0.454,0.965,0.454,1.719c0,0.857-0.235,1.529-0.675,1.914c-0.529,0.443-1.316,0.602-3.015,0.602
			c-1.548,0-2.259-0.143-2.844-0.584c-0.458-0.344-0.714-0.967-0.714-1.771c0-0.107,0-0.311,0.019-0.49h1.28
			c-0.021,0.148-0.021,0.33-0.021,0.4c0,0.494,0.125,0.895,0.366,1.135c0.218,0.199,0.84,0.309,1.878,0.309
			c1.19,0,1.936-0.164,2.177-0.455c0.181-0.242,0.272-0.604,0.272-1.098c0-1.059-0.254-1.332-1.225-1.352
			c-1.273,0-2.775-0.129-3.266-0.258c-1.004-0.234-1.389-0.852-1.389-2.225c0-1.898,0.713-2.393,3.521-2.393
			c1.865,0,2.74,0.277,3.141,0.951c0.184,0.328,0.239,0.621,0.239,1.406H102.878z"/>
		<path fill="#808080" d="M111.458,49.275h-3.285v5.223c0,1.061,0.242,1.334,1.189,1.334c1.037,0,1.276-0.311,1.276-1.629
			c0-0.09,0-0.215-0.019-0.454h1.153c0.014,0.257,0.014,0.511,0.014,0.64c0,1.752-0.728,2.5-2.445,2.5
			c-1.295,0-2.006-0.346-2.281-1.092c-0.11-0.311-0.128-0.529-0.128-1.299v-5.223h-1.187v-1.039h1.187v-2.045h1.24v2.045h3.285
			V49.275z"/>
		<path fill="#808080" d="M120.88,54.191c0.015,0.143,0.015,0.287,0.015,0.342c0,1.754-0.944,2.355-3.667,2.355
			c-3.084,0-3.794-0.836-3.794-4.416c0-3.525,0.73-4.365,3.832-4.365c2.101,0,2.938,0.402,3.359,1.627
			c0.201,0.602,0.255,1.096,0.255,2.99h-6.131c0.018,2.707,0.326,3.107,2.463,3.107s2.408-0.184,2.39-1.641H120.88z M119.602,51.76
			c-0.017-1.186-0.036-1.385-0.185-1.789c-0.216-0.635-0.766-0.857-2.133-0.857c-2.12,0-2.535,0.418-2.518,2.646H119.602z"/>
		<path fill="#808080" d="M124.511,48.236l-0.031,1.295l0.031,0.02c0.518-1.023,1.318-1.443,2.797-1.443
			c1.421,0,2.316,0.494,2.629,1.443h0.018c0.565-1.023,1.425-1.443,2.938-1.443c2.213,0,3.018,0.824,3.018,3.086v5.568h-1.244
			v-5.695c0-0.477-0.091-1.002-0.203-1.262c-0.22-0.436-0.746-0.639-1.664-0.639c-1.258,0-2.096,0.35-2.369,0.989
			c-0.163,0.362-0.221,0.819-0.221,1.679v4.928h-1.238v-5.568c-0.057-1.148-0.057-1.148-0.166-1.369
			c-0.223-0.42-0.816-0.658-1.734-0.658c-1.865,0-2.559,0.75-2.559,2.758v4.838h-1.24v-8.525H124.511z"/>
		<path fill="#808080" d="M144.064,49.275h-1.294v-1.039h1.294v-1.279c0-1.77,0.766-2.5,2.61-2.5c0.315,0,0.531,0.02,0.936,0.07
			v1.025c-0.457-0.037-0.692-0.055-0.951-0.055c-0.969,0-1.352,0.385-1.352,1.35v1.389h2.303v1.039h-2.303v7.486h-1.243V49.275z"/>
		<path fill="#808080" d="M156.593,52.523c0,3.639-0.639,4.365-3.781,4.365c-3.137,0-3.766-0.727-3.766-4.453
			c0-3.576,0.662-4.328,3.783-4.328C155.97,48.107,156.593,48.84,156.593,52.523z M150.712,49.734
			c-0.254,0.421-0.362,1.205-0.362,2.719c0,3.068,0.235,3.379,2.462,3.379c1.242,0,1.86-0.166,2.119-0.564
			c0.258-0.424,0.36-1.205,0.36-2.758c0-1.66-0.103-2.445-0.414-2.868c-0.258-0.306-0.915-0.476-2.048-0.476
			C151.569,49.166,150.97,49.336,150.712,49.734z"/>
		<path fill="#808080" d="M160.315,48.236l-0.129,0.984l0.043,0.021c0.523-0.875,1.201-1.211,2.42-1.211
			c1.626,0,2.359,0.77,2.359,2.434v0.584h-1.227v-0.693c0-0.895-0.418-1.262-1.402-1.262c-0.893,0-1.555,0.311-1.826,0.877
			c-0.167,0.346-0.238,0.84-0.238,1.68v5.111h-1.242v-8.525H160.315z"/>
		<path fill="#808080" d="M175.266,57.258c-0.255,0.945-0.579,1.805-0.852,2.264c-0.389,0.654-1.157,1.055-2.048,1.055
			c-0.184,0-0.33-0.016-0.602-0.051v-1.039c0.148,0.02,0.311,0.035,0.381,0.035c0.97,0,1.295-0.479,1.864-2.76h-0.455l-3.089-8.525
			h1.315l1.315,3.797c0.581,1.646,0.676,1.916,0.858,2.465l0.459,1.334h0.034c0.313-1.279,0.618-2.539,0.929-3.799l0.971-3.797
			h1.329L175.266,57.258z"/>
		<path fill="#808080" d="M186.534,52.523c0,3.639-0.639,4.365-3.782,4.365c-3.138,0-3.76-0.727-3.76-4.453
			c0-3.576,0.66-4.328,3.777-4.328C185.914,48.107,186.534,48.84,186.534,52.523z M180.656,49.734
			c-0.262,0.421-0.366,1.205-0.366,2.719c0,3.068,0.237,3.379,2.462,3.379c1.243,0,1.864-0.166,2.121-0.564
			c0.254-0.424,0.365-1.205,0.365-2.758c0-1.66-0.111-2.445-0.42-2.868c-0.26-0.306-0.917-0.476-2.049-0.476
			C181.512,49.166,180.912,49.336,180.656,49.734z"/>
		<path fill="#808080" d="M195.844,56.762h-1.241l0.09-1.113l-0.033-0.037c-0.441,0.881-1.353,1.277-2.829,1.277
			c-2.082,0-2.944-0.875-2.944-2.979v-5.674h1.245v5.674c0,1.521,0.383,1.922,1.897,1.922c1.956,0,2.574-0.643,2.574-2.703v-4.893
			h1.241V56.762z"/>
	</g>
	<g>
		<path fill="#808080" d="M13.421,26.304c0,1.023,0.646,1.628,2.007,1.854c0.454,0.08,1.479,0.116,3.677,0.116
			c2.196,0,3.258-0.078,3.977-0.308c0.755-0.222,1.212-0.869,1.212-1.697c0-1.596-0.946-1.938-5.722-1.938
			C14.484,24.331,13.421,24.75,13.421,26.304z M24.372,28.764c-0.683,2.803-2.388,3.56-8.144,3.56c-7.5,0-9.243-1.099-9.243-5.718
			c0-3.332,1.212-5.002,3.937-5.532c1.478-0.301,3.184-0.378,6.973-0.378c4.315,0,5.679,0.495,6.324,2.2v-1.936
			c0-2.729-0.569-3.029-5.455-3.029c-3.904,0-4.395,0.151-4.506,1.44H7.74c0.116-2.313,0.798-3.412,2.615-4.396
			c1.705-0.908,3.788-1.172,9.583-1.172c4.617,0,6.855,0.3,8.446,1.172c1.21,0.684,2.081,1.97,2.387,3.641
			c0.114,0.525,0.114,0.525,0.114,2.343v10.945h-6.514V28.764z"/>
		<path fill="#808080" d="M134.972,31.906h-7.541v-7.042h7.541V31.906z"/>
		<path fill="#808080" d="M156.786,21c-0.151-1.932-1.287-2.383-5.682-2.383c-4.542,0-5.569,0.792-5.569,4.466
			c0,2.121,0.493,3.333,1.632,3.937c0.603,0.342,1.891,0.495,4.205,0.495c4.28,0,5.375-0.495,5.564-2.501h6.669
			c-0.079,5.719-2.687,7.31-11.972,7.31c-5.527,0-8.406-0.53-10.111-1.816c-1.744-1.327-2.541-3.562-2.541-7.309
			c0-4.091,0.91-6.594,2.883-7.88c1.629-1.063,4.545-1.515,9.471-1.515c9.502,0,12.004,1.475,12.08,7.196H156.786z"/>
		<path fill="#808080" d="M166.671,27.475l11.666-8.857h-10.908v-4.397h20.344v4.922l-11.366,8.373h11.744v4.39h-21.479V27.475z"/>
		<path fill="#FF9900" d="M83.192,27.098H63.115v-8.94L81.261,6.644H90.2v15.154h4.09v5.149H90.2v4.959h-7.008V27.098z
			 M83.192,12.438l-14.887,9.359h14.887V12.438z"/>
		<path fill="#808080" d="M41.715,26.455c0.039,1.554,1.061,1.857,5.948,1.857c3.864,0,5.112-0.417,5.112-1.63
			c0-0.873-0.568-1.324-1.893-1.403c-0.643-0.074-1.552-0.074-3.368-0.074h-3.261c-7.083,0-9.242-1.25-9.242-5.38
			c0-2.878,1.139-4.659,3.334-5.303c1.706-0.453,4.697-0.717,8.749-0.717c9.394,0,11.213,0.834,11.439,5.303h-6.856
			c-0.151-1.024-0.983-1.25-4.543-1.25c-4.055,0-5.38,0.373-5.38,1.475c0,1.096,0.797,1.324,4.279,1.324h4.584
			c6.93,0,8.828,1.215,8.828,5.572c0,2.952-1.1,4.618-3.523,5.338c-1.781,0.53-4.736,0.757-9.694,0.757
			c-5.496,0-7.313-0.227-8.979-1.099c-1.631-0.833-2.387-2.348-2.428-4.771H41.715z"/>
		<path fill="#808080" d="M122.622,31.906h-6.367v-4.09c-0.868,3.41-2.799,4.509-8.14,4.509c-4.057,0-6.36-0.721-7.879-2.497
			c-1.175-1.366-1.628-3.071-1.628-6.218v-9.388h6.514v9.125c0,3.184,1.023,3.904,5.456,3.904c4.278,0,5.526-1.133,5.526-5.039
			v-7.99h6.518V31.906z"/>
	</g>
	<path fill="#808080" d="M197.022,42.307c-1.64,0-2.975-1.334-2.975-2.975s1.335-2.975,2.975-2.975c1.644,0,2.978,1.334,2.978,2.975
		S198.666,42.307,197.022,42.307L197.022,42.307z M197.022,36.744c-1.425,0-2.587,1.16-2.587,2.588s1.162,2.588,2.587,2.588
		c1.429,0,2.591-1.16,2.591-2.588S198.451,36.744,197.022,36.744L197.022,36.744z"/>
	<g>
		<path fill="#808080" d="M195.641,40.904V37.76h1.392c0.281,0,0.493,0.027,0.641,0.086c0.146,0.055,0.261,0.156,0.349,0.297
			c0.087,0.145,0.13,0.303,0.13,0.477c0,0.223-0.069,0.41-0.215,0.563c-0.146,0.154-0.369,0.25-0.669,0.291
			c0.108,0.053,0.193,0.105,0.251,0.158c0.121,0.109,0.236,0.252,0.346,0.418l0.546,0.855h-0.522l-0.417-0.654
			c-0.121-0.188-0.221-0.334-0.3-0.434s-0.148-0.17-0.212-0.211c-0.063-0.039-0.124-0.066-0.19-0.082
			c-0.045-0.012-0.124-0.016-0.23-0.016h-0.483v1.396H195.641z M196.055,39.148h0.896c0.19,0,0.339-0.02,0.445-0.061
			c0.108-0.039,0.19-0.102,0.244-0.188c0.055-0.086,0.085-0.18,0.085-0.281c0-0.15-0.055-0.271-0.163-0.369
			c-0.109-0.096-0.278-0.143-0.512-0.143h-0.995V39.148z"/>
	</g>
</g>
</svg>
