<?xml version="1.0" encoding="UTF-8" standalone="no"?><!DOCTYPE svg PUBLIC "-//W3C//DTD SVG 1.1//EN" "http://www.w3.org/Graphics/SVG/1.1/DTD/svg11.dtd"><svg width="100%" height="100%" viewBox="0 0 713 897" version="1.1" xmlns="http://www.w3.org/2000/svg" xmlns:xlink="http://www.w3.org/1999/xlink" xml:space="preserve" xmlns:serif="http://www.serif.com/" style="fill-rule:evenodd;clip-rule:evenodd;stroke-linejoin:round;stroke-miterlimit:2;"><path d="M253.758,752.932c0,-26.966 0,-49.927 0.001,-49.926c-55.995,-74.896 -117.882,-180.941 -117.882,-279.098c0,-118.534 96.242,-214.777 214.786,-214.777c118.545,-0 214.787,96.243 214.787,214.777c-0,98.157 -61.878,204.202 -117.882,279.098l0.003,50.608l-0,57.3l-0.002,26.851c0,32.5 -26.348,58.848 -58.847,58.848l-76.108,-0c-32.511,-0 -58.856,-26.349 -58.856,-58.848c-0,0 -0,-10.748 -0,-26.173c-0.009,-0.225 -0.013,-0.451 -0.013,-0.678c-0,-0.227 0.004,-0.452 0.013,-0.677c-0,-16.096 -0,-36.927 -0,-55.942c-0.009,-0.226 -0.013,-0.453 -0.013,-0.681c-0,-0.228 0.004,-0.456 0.013,-0.682Zm159.83,-16.317l0,-22.276l-125.849,-0l-0,22.276l125.849,0Zm14.018,-63.769c50.188,-68.83 103.863,-161.918 103.863,-248.938c-0,-99.781 -81.016,-180.797 -180.806,-180.797c-99.789,0 -180.805,81.016 -180.805,180.797c-0,84.526 50.649,174.777 99.542,242.96c11.235,-19.946 36.502,-76.572 17.217,-156.501c-2.2,-9.12 3.418,-18.311 12.538,-20.511c9.12,-2.201 18.311,3.417 20.511,12.537c21.062,87.29 -4.21,150.751 -18.85,177.949l91.421,-0c-15.407,-27.132 -41.81,-89.621 -23.203,-176.785c1.959,-9.175 10.998,-15.034 20.173,-13.075c9.175,1.959 15.034,10.998 13.075,20.173c-19.642,92.011 18.225,151.981 25.324,162.191Zm-14.018,121.07l0,-23.304l-125.849,0l-0,23.304l125.849,-0Zm-125.849,33.997l-0,9.852c-0,13.734 11.136,24.867 24.875,24.867l76.108,-0c13.733,-0 24.866,-11.134 24.866,-24.867l0,-9.852l-125.849,0Zm-34.36,-372.634c-8.472,-4.031 -12.078,-14.181 -8.048,-22.653c4.031,-8.472 14.181,-12.078 22.653,-8.047c-0,-0 71.502,33.145 165.549,-10.228c8.519,-3.929 18.626,-0.203 22.555,8.317c3.929,8.519 0.203,18.626 -8.317,22.555c-110.37,50.902 -194.392,10.056 -194.392,10.056Zm119.4,-318.059c-0.655,14.433 -12.904,25.618 -27.337,24.963c-14.432,-0.655 -25.618,-12.904 -24.962,-27.337l4.986,-109.856c0.655,-14.432 12.904,-25.618 27.337,-24.963c14.432,0.655 25.618,12.905 24.962,27.337l-4.986,109.856Zm156.416,48.491c-7.538,12.304 -23.648,16.173 -35.952,8.635c-12.304,-7.539 -16.173,-23.648 -8.634,-35.952l50.076,-81.733c7.538,-12.304 23.647,-16.173 35.951,-8.634c12.304,7.538 16.173,23.648 8.635,35.952l-50.076,81.732Zm86.303,98.479c-11.31,8.983 -27.786,7.092 -36.768,-4.218c-8.983,-11.311 -7.092,-27.787 4.218,-36.769l57.111,-45.354c11.31,-8.983 27.786,-7.092 36.768,4.219c8.983,11.31 7.092,27.786 -4.218,36.768l-57.111,45.354Zm33.145,135.131c-14.253,2.251 -27.653,-7.492 -29.905,-21.745c-2.251,-14.254 7.492,-27.653 21.745,-29.905l41.468,-6.551c14.253,-2.252 27.653,7.492 29.904,21.745c2.252,14.253 -7.491,27.653 -21.745,29.904l-41.467,6.552Zm-631.313,-24.167c-13.594,-4.882 -20.667,-19.882 -15.785,-33.476c4.882,-13.594 19.883,-20.667 33.477,-15.785l34.322,12.327c13.594,4.882 20.667,19.882 15.785,33.476c-4.882,13.594 -19.883,20.667 -33.477,15.785l-34.322,-12.327Zm213.506,-245.968c8.591,11.614 6.137,28.018 -5.477,36.61c-11.615,8.591 -28.019,6.137 -36.611,-5.477l-55.966,-75.659c-8.591,-11.614 -6.137,-28.018 5.477,-36.61c11.614,-8.591 28.019,-6.137 36.61,5.477l55.967,75.659Zm-108.944,79.79c11.821,8.278 14.697,24.596 6.419,36.417c-8.278,11.821 -24.596,14.698 -36.417,6.42l-40.676,-28.485c-11.821,-8.278 -14.697,-24.596 -6.419,-36.417c8.278,-11.821 24.596,-14.697 36.417,-6.419l40.676,28.484Z" style="fill:#fff;"/></svg>